<?xml version="1.0" standalone="no"?>
<!DOCTYPE svg PUBLIC "-//W3C//DTD SVG 1.1//EN" "http://www.w3.org/Graphics/SVG/1.1/DTD/svg11.dtd" >
<svg xmlns="http://www.w3.org/2000/svg" xmlns:xlink="http://www.w3.org/1999/xlink" version="1.1">
    <metadata>
        Created by FontForge 20170731 at Wed Jun 5 20:13:03 2002
        By Aleksey,,,
        Copyright (c) 1985, 1987, 1990, 2002 Adobe Systems Incorporated. All Rights Reserved.
    </metadata>
    <defs>
        <font id="MeliorLTStd-BoldItalic" horiz-adv-x="556">
            <font-face
                    font-family="Melior LT Std"
                    font-weight="700"
                    font-style="italic"
                    font-stretch="normal"
                    units-per-em="1000"
                    panose-1="2 4 7 3 6 5 6 10 8 4"
                    ascent="745"
                    descent="-255"
                    x-height="470"
                    cap-height="692"
                    bbox="-166 -252 1086 939"
                    underline-thickness="50"
                    underline-position="-225"
                    slope="-12"
                    unicode-range="U+0020-FB02"
            />
            <missing-glyph horiz-adv-x="585"
                           d="M85 0v700h500v-700h-500zM335 395l170 255h-340zM365 350l170 -255v510zM165 50h340l-170 255zM135 605v-510l170 255z"/>
            <glyph glyph-name="fi" unicode="fi" horiz-adv-x="648"
                   d="M35 470h101q13 113 63 185q63 90 168 90q49 0 79.5 -21.5t30.5 -68.5q0 -28 -15 -42t-40 -14q-48 0 -51 36q-1 11 -1 34q0 11 -1 17t-7.5 13t-19.5 7q-17 0 -28 -14.5t-17 -41t-9 -54t-8 -64.5t-10 -62h334l-80 -370q-5 -20 -6 -37q0 -5 1 -8.5t4 -6t6 -4.5t8 -3
t8.5 -1.5t9.5 -1.5t9 -1h24l-8 -39q-23 0 -69.5 1t-69.5 1t-69 -0.5t-69 -1.5l8 39h27q25 2 34.5 14.5t17.5 48.5l53 255l7 37q4 25 -9.5 32t-44.5 7h-131q-89 -681 -331 -681q-32 0 -59 17.5t-27 60.5q-1 27 16.5 46.5t40.5 19.5q26 0 39 -16t11 -42q0 -33 21 -34
q33 0 61.5 90t48.5 225l43 314h-102zM582 715q27 0 46.5 -19t19.5 -46q0 -38 -21 -63t-59 -25q-28 0 -48 16t-20 43q0 41 21 67.5t61 26.5z"/>
            <glyph glyph-name="fl" unicode="fl" horiz-adv-x="648"
                   d="M37 470h101q13 113 63 185q63 90 168 90q48 0 75 -19l4 9l214 10l-30 -145l-106 -500q-4 -18 -6 -36q0 -5 1 -8.5t4 -6t6 -4.5t8 -3t8.5 -1.5t9.5 -1.5t9 -1h24l-8 -40q-23 0 -69.5 1t-69.5 1t-69 -0.5t-69 -1.5l8 40h27q25 2 34.5 14.5t17.5 47.5l102 500l7 28l7 38
q4 23 -7 30.5t-36 8.5q14 -17 14 -50q0 -28 -15 -42t-40 -14q-48 0 -51 36q-1 11 -1 34q0 11 -1 17t-7.5 13t-19.5 7q-17 0 -28 -14.5t-17 -41t-9 -54t-8 -64.5t-10 -62h121l-8 -39h-118q-89 -681 -331 -681q-32 0 -59 17.5t-27 60.5q-1 27 16.5 46.5t40.5 19.5q26 0 39 -16
t11 -42q0 -33 21 -34q33 0 61.5 90t48.5 225l43 314h-102z"/>
            <glyph glyph-name=".notdef" horiz-adv-x="585"
                   d="M85 0v700h500v-700h-500zM335 395l170 255h-340zM365 350l170 -255v510zM165 50h340l-170 255zM135 605v-510l170 255z"/>
            <glyph glyph-name=".null" horiz-adv-x="0"
            />
            <glyph glyph-name="nonmarkingreturn" horiz-adv-x="333"
            />
            <glyph glyph-name="space" unicode=" " horiz-adv-x="278"
            />
            <glyph glyph-name="exclam" unicode="!" horiz-adv-x="333"
                   d="M112 288l35 322q4 45 20.5 70t58.5 25q32 0 54.5 -17t22.5 -48q0 -20 -10 -47l-113 -350l-43 -30l-29 38zM96 -10q-29 0 -46.5 17.5t-17.5 46.5q0 39 24.5 67.5t62.5 28.5q26 0 43.5 -19t17.5 -46q0 -39 -23 -67t-61 -28z"/>
            <glyph glyph-name="quotedbl" unicode="&#x22;" horiz-adv-x="500"
                   d="M126 368l-36 12l14 261q1 25 17.5 39t35 13.5t31.5 -2.5q35 -13 47.5 -42.5t3.5 -50.5zM381 368l-36 12l14 261q1 25 17.5 39t35 13.5t31.5 -2.5q35 -13 47.5 -42.5t3.5 -50.5z"/>
            <glyph glyph-name="numbersign" unicode="#"
                   d="M498 300v-89h-102l-32 -211h-89l31 211h-85l-32 -211h-88l31 211h-100v89h114l13 84h-99v89h111l30 198h87l-29 -198h86l29 198h90l-30 -198h90v-89h-103l-12 -84h89zM332 384h-86l-12 -84h85z"/>
            <glyph glyph-name="dollar" unicode="$"
                   d="M285 415l46 212q-56 1 -89 -33t-33 -89q0 -59 76 -90zM300 267l-52 -241q61 -2 99.5 34.5t38.5 98.5q0 71 -86 108zM240 -10l-24 -109h-48l25 110q-144 26 -181 59q20 93 24 159h86q-1 -5 -5 -35t-4 -42q0 -87 88 -104l55 255q-79 34 -124 75.5t-45 110.5q0 103 72 151
t180 46l17 79h48l-19 -82q102 -17 173 -50q-17 -64 -26 -129l-4 -19h-76q7 54 7 74q0 76 -81 87l-49 -227q41 -17 60.5 -26t50 -27.5t44 -36.5t23.5 -47t8 -65q-7 -111 -75 -159t-200 -48z"/>
            <glyph glyph-name="percent" unicode="%" horiz-adv-x="889"
                   d="M706 344q75 0 124 -34.5t49 -106.5q0 -89 -58.5 -151t-146.5 -62q-166 0 -166 149q0 85 56.5 145t141.5 60zM670 23q26 0 47 23.5t33 57.5t18.5 66.5t6.5 56.5t-2.5 39.5t-15.5 29.5t-36 14q-31 0 -54.5 -23.5t-35 -59t-17 -68.5t-5.5 -62q0 -74 61 -74zM278 690
q72 0 118.5 -35.5t46.5 -105.5q0 -89 -57.5 -151.5t-146.5 -62.5q-166 0 -166 150q0 89 58 147t147 58zM234 369q33 0 59 40.5t36.5 85.5t10.5 78q0 24 -2.5 39.5t-15.5 29.5t-36 14q-31 0 -54.5 -23.5t-35.5 -59.5t-17.5 -69t-5.5 -61q0 -74 61 -74zM674 721h57l-464 -747
h-58z"/>
            <glyph glyph-name="ampersand" unicode="&#x26;" horiz-adv-x="778"
                   d="M290 359v2q-107 30 -107 123q0 59 35.5 97.5t83.5 52.5t105 14q28 0 50.5 -2t48.5 -10.5t42.5 -21.5t26.5 -38t6 -58q-2 -9 -9 -17.5t-15 -10.5h-53q-21 4 -21 31l3 11q2 7 2 18t-4 25t-19 23.5t-39 9.5q-59 0 -88 -48.5t-29 -112.5q0 -35 17.5 -61t51.5 -21q3 6 6 10.5
t7.5 8t7.5 6t9 4.5t8.5 3t10.5 2t10 1t11.5 0.5t11.5 0.5l150 -7q119 -4 124 38q4 24 -26 54l25 16q51 -44 51 -93q0 -99 -110 -111q-32 -4 -69 -1q-11 -129 -91 -217.5t-204 -89.5q-101 0 -165 42t-64 137q0 88 57 136.5t152 53.5zM376 218h-37l23 102q-1 1 -1.5 2l-1 2
t-7 2t-19.5 1q-40 0 -66.5 -33t-35.5 -72t-9 -78q0 -51 32 -80t84 -29q40 0 72.5 17t52.5 43t34 62t21 69.5t10 71.5l-60 3q-20 2 -35 -1q-15 -1 -26 -13t-15.5 -23.5t-12.5 -36.5z"/>
            <glyph glyph-name="quotesingle" unicode="'" horiz-adv-x="250"
                   d="M180 368l-40 12l15 261q2 36 35 47t59 3q39 -13 53 -43t3 -50z"/>
            <glyph glyph-name="parenleft" unicode="(" horiz-adv-x="333"
                   d="M219 -120l-11 -34q-174 71 -174 233q0 34 16 141q21 132 63 281q23 83 54.5 133.5t89.5 80.5t145 30l-7 -34q-34 -5 -59.5 -21t-41.5 -34t-29 -49.5t-19 -53.5t-14 -60l-55 -257q-36 -157 -36 -224q0 -86 78 -132z"/>
            <glyph glyph-name="parenright" unicode=")" horiz-adv-x="333"
                   d="M120 712l11 33q174 -68 174 -239q0 -98 -49 -302q0 -2 -7.5 -32t-10 -38.5t-10 -36t-12.5 -41t-12.5 -34.5t-15.5 -36.5t-16 -28.5q-39 -59 -102 -89t-134 -22l9 33q33 7 58.5 22t39.5 27.5t27.5 45.5t17 45.5t14.5 57.5q3 13 5 19l56 258q35 150 35 210q0 59 -14.5 84.5
t-63.5 63.5z"/>
            <glyph glyph-name="asterisk" unicode="*"
                   d="M330 518l103 -114l-89 -48l-41 144l-87 -144l-67 65l126 98l-151 34l45 85l124 -94v161h98l-66 -159l143 63l21 -95z"/>
            <glyph glyph-name="plus" unicode="+" horiz-adv-x="606"
                   d="M259 292v209h88v-209h209v-88h-209v-209h-88v209h-209v88h209z"/>
            <glyph glyph-name="comma" unicode="," horiz-adv-x="278"
                   d="M10 -149l-10 35q41 8 72.5 40t45.5 74q-7 -2 -31 -4q-24 0 -35.5 16.5t-11.5 41.5q0 39 21 66.5t59 27.5q31 0 48.5 -20.5t17.5 -52.5q0 -78 -50.5 -146t-125.5 -78z"/>
            <glyph glyph-name="hyphen" unicode="-" horiz-adv-x="333"
                   d="M29 179l25 115h259l-27 -115h-257z"/>
            <glyph glyph-name="period" unicode="." horiz-adv-x="278"
                   d="M106 -10q-26 0 -44.5 16.5t-18.5 41.5q0 43 22.5 72.5t63.5 29.5q26 0 43.5 -19t17.5 -46q0 -39 -23 -67t-61 -28z"/>
            <glyph glyph-name="slash" unicode="/" horiz-adv-x="278"
                   d="M0 -10l256 755h82l-255 -755h-83z"/>
            <glyph glyph-name="zero" unicode="0"
                   d="M351 595q-89 0 -129 -204q-1 -3 -1.5 -5t-0.5 -4q-39 -177 -39 -255q0 -28 3.5 -47t18 -35.5t41.5 -16.5q16 0 30.5 7t25.5 21.5t19 27t16 35.5t11.5 34t9.5 34.5t7 26.5q48 185 48 292q0 89 -60 89zM45 223q0 82 30.5 185.5t79.5 153.5q70 73 185 73q98 0 153.5 -51
t55.5 -147q0 -81 -23 -175t-63 -157q-39 -64 -90 -89.5t-131 -25.5q-112 0 -154.5 59t-42.5 174z"/>
            <glyph glyph-name="one" unicode="1"
                   d="M218 157l78 381q-93 -71 -170 -97q-9 -5 -14.5 -2t-7 5.5t-3.5 9.5l-4 25q-9 21 14 24q50 14 118 49q69 35 115 73h114l-106 -485q-6 -38 -6 -57q0 -16 8.5 -26.5t22.5 -14t31 -5t34 -0.5t32 0l-8 -39q-33 0 -99.5 1t-99.5 1q-34 0 -100 -1t-100 -1l8 39q85 0 103 13
t35 87q3 13 5 20z"/>
            <glyph glyph-name="two" unicode="2"
                   d="M156 116h231q44 1 57 12.5t28 56.5h44q-33 -110 -46 -187q-36 0 -108.5 1t-108.5 1t-108.5 -1t-108.5 -1l29 99l2 4q131 98 183 151q122 125 122 260q0 33 -16.5 56t-48.5 23q-27 0 -45.5 -13t-28 -37t-13.5 -43.5t-7 -47.5q-1 -5 -2.5 -8t-5.5 -4t-6.5 -1.5t-9 0
t-8.5 0.5h-50q-21 0 -27 6t-6 28q4 76 62 120t156 44q54 0 97.5 -12.5t75 -48t31.5 -90.5q0 -26 -9.5 -53t-21.5 -48.5t-36.5 -47t-41 -41.5t-49 -40t-47 -34t-48.5 -33t-41 -27q-44 -31 -70 -42v-2z"/>
            <glyph glyph-name="three" unicode="3"
                   d="M191 310l11 48q48 -4 73 -4q59 0 87 48t28 111q0 79 -71 79q-40 0 -58 -17t-30 -59q-7 -38 -12 -43q-7 -6 -30 -6h-43q-30 0 -34 9q-8 34 13.5 70t54.5 57q50 32 144 32q37 0 70.5 -6.5t65.5 -21t51 -43t19 -67.5q0 -66 -46 -109t-115 -51v-3q122 -26 122 -138
q0 -58 -22 -99.5t-61 -64t-84 -32.5t-99 -10q-44 0 -83.5 12.5t-69 43.5t-29.5 77q0 18 1.5 28.5t9.5 20.5t24 10h54q17 0 25 -8.5t8.5 -17t-1.5 -26.5t-2 -24q0 -76 75 -76q39 0 64.5 33t34 71.5t8.5 76.5q0 36 -17 62.5t-50 34.5q-22 5 -86 2z"/>
            <glyph glyph-name="four" unicode="4"
                   d="M282 165h-262l16 76q138 181 336 384h144l-80 -374h104l-26 -86h-95l-18 -78q-8 -32 15 -40t90 -8l-8 -41h-374l8 41q20 1 46 1.5t33.5 -0.5t21 3.5t14.5 6t8 14t8 21t7 34t12 46.5zM101 251h201l65 302q-118 -123 -266 -302z"/>
            <glyph glyph-name="five" unicode="5"
                   d="M164 295l-61 6q67 245 76 324h370l-39 -112h-302l-46 -158l2 -2q44 49 145 49q83 0 136.5 -44t53.5 -124q0 -120 -73.5 -182t-196.5 -62q-35 0 -65.5 5.5t-59.5 19t-45.5 40t-16.5 63.5q0 36 7 45t25 9h52q27 0 33 -8.5t1 -29.5q-2 -22 0 -44q3 -27 23 -44t47 -17
q34 0 59 20t38 52t19 64t6 64q0 23 -1 38.5t-6.5 33t-14.5 27.5t-26 17t-41 7q-15 0 -28.5 -3.5t-21.5 -7t-17.5 -11.5t-12.5 -11t-11 -13z"/>
            <glyph glyph-name="six" unicode="6"
                   d="M311 345q-36 0 -61.5 -23t-37 -60t-16 -70t-4.5 -67q0 -94 70 -94q34 0 59 24.5t36.5 63.5t16 73t4.5 66q0 87 -67 87zM253 -10q-54 0 -92 17t-59 49.5t-30.5 71t-11.5 90.5q-1 50 20.5 134t50.5 147q75 136 235 136q38 0 67 -4.5t59.5 -18t46 -43t13.5 -73.5
q2 -30 -30 -30h-64q-25 0 -23 16l5 45q3 25 -12.5 46t-51.5 21q-31 0 -54.5 -15.5t-38.5 -46t-23.5 -55.5t-18 -64.5t-13.5 -52.5q50 36 110 36q82 0 133 -40t51 -119q0 -122 -72.5 -184.5t-196.5 -62.5z"/>
            <glyph glyph-name="seven" unicode="7"
                   d="M251 0h-153q12 31 91.5 133.5t183.5 230.5l117 144h-277q-39 0 -54.5 -22t-26.5 -68h-46q31 96 54 207h440l-24 -103q-78 -95 -165.5 -250.5t-139.5 -271.5z"/>
            <glyph glyph-name="eight" unicode="8"
                   d="M296 318q-42 0 -70 -35.5t-37.5 -77t-9.5 -81.5q0 -95 72 -95q31 0 54.5 22.5t35.5 56t18 65.5t6 59q0 86 -69 86zM212 342v2q-96 24 -96 114q0 89 64.5 133t158.5 44q39 0 72.5 -5.5t67.5 -19t54 -42t20 -68.5q0 -67 -43.5 -109.5t-111.5 -52.5v-1q110 -34 110 -133
q0 -58 -23.5 -101t-64 -67t-88 -35t-102.5 -11q-78 0 -136 40.5t-58 114.5q0 82 47 134.5t129 62.5zM253 432q0 -73 56 -73q38 0 63 27t33.5 61t8.5 72q0 75 -59 75q-36 0 -60 -28.5t-33 -63.5t-9 -70z"/>
            <glyph glyph-name="nine" unicode="9"
                   d="M334 593q-37 0 -62 -23.5t-36 -62t-15 -71.5t-4 -68q0 -89 74 -89q34 0 57.5 24t34.5 62t15 70.5t4 63.5q0 94 -68 94zM332 635q203 0 203 -221q-8 -180 -73 -292q-37 -70 -93 -101t-153 -31q-72 0 -124 29.5t-52 95.5q0 41 16 41h92q15 0 11 -20v-9q0 -19 0.5 -29
t3.5 -25.5t10 -23.5t20 -14t33 -6q25 -1 46 11.5t33.5 30.5t23.5 47t16.5 50.5t12.5 51.5t10 42l-2 2q-11 -17 -50.5 -26.5t-70.5 -9.5q-75 0 -123 42.5t-48 115.5q0 119 69 184t189 65z"/>
            <glyph glyph-name="colon" unicode=":" horiz-adv-x="333"
                   d="M127 -10q-26 0 -44.5 16.5t-18.5 42.5q0 39 21 70t58 31q30 0 49 -17.5t19 -47.5q0 -39 -23 -67t-61 -28zM194 315q-26 0 -44.5 16.5t-18.5 42.5q0 39 21 70t58 31q30 0 49 -17.5t19 -47.5q0 -39 -23 -67t-61 -28z"/>
            <glyph glyph-name="semicolon" unicode=";" horiz-adv-x="333"
                   d="M41 -149l-10 35q41 8 72.5 40t45.5 74q-3 -1 -15 -3q-3 0 -8.5 -0.5t-7.5 -0.5q-24 0 -35.5 16.5t-11.5 41.5q0 39 21 66.5t59 27.5q31 0 48.5 -20.5t17.5 -52.5q0 -78 -50.5 -146t-125.5 -78zM194 314q-26 0 -44.5 16.5t-18.5 42.5q0 39 21 70t58 31q30 0 49 -17.5
t19 -47.5q0 -39 -23 -67t-61 -28z"/>
            <glyph glyph-name="less" unicode="&#x3c;" horiz-adv-x="606"
                   d="M174 248l384 -174v-95l-509 228v82l509 228v-95z"/>
            <glyph glyph-name="equal" unicode="=" horiz-adv-x="606"
                   d="M555 390v-88h-504v88h504zM555 195v-88h-504v88h504z"/>
            <glyph glyph-name="greater" unicode="&#x3e;" horiz-adv-x="606"
                   d="M48 74l384 174l-384 174v95l509 -228v-82l-509 -228v95z"/>
            <glyph glyph-name="question" unicode="?" horiz-adv-x="444"
                   d="M291 402l-51 -154l-45 -38l-27 41l21 191q13 -12 47 -12q51 0 79 49t28 104q0 72 -53 82q-28 6 -53.5 -16.5t-35.5 -83.5q-5 -24 -18 -27q-1 0 -28 0.5t-43.5 4.5t-24.5 13q-6 51 23 86t73 49t96 14q36 0 69.5 -8t63 -24.5t47 -46t17.5 -67.5q0 -74 -56 -119.5
t-129 -37.5zM156 -10q-28 0 -46 21t-18 49q0 35 24 64.5t58 29.5q30 0 51 -18t21 -48q0 -44 -23.5 -71t-66.5 -27z"/>
            <glyph glyph-name="at" unicode="@" horiz-adv-x="833"
                   d="M358 178q33 0 61.5 47t42 98t13.5 82q0 25 -10 47t-31 22q-32 0 -59.5 -49t-40.5 -102.5t-13 -84.5q0 -60 37 -60zM496 447l13 55h111l-75 -285q-3 -11 -3 -21q0 -20 13 -20q38 0 83.5 81t45.5 151q0 92 -76.5 155t-170.5 63q-124 0 -205.5 -80.5t-81.5 -207.5
q0 -130 86 -208t215 -78q63 0 119 33t94 89h75q-43 -86 -124.5 -138.5t-175.5 -52.5q-149 0 -253 98.5t-104 249.5q0 154 100 259t249 105q127 0 220.5 -80.5t93.5 -204.5q0 -105 -69.5 -189t-152.5 -84q-33 0 -50.5 24t-20.5 59q-27 -39 -52.5 -58.5t-63.5 -19.5
q-56 0 -91 44t-35 101q0 84 62 154t143 70q30 0 52 -17t27 -47h2z"/>
            <glyph glyph-name="A" unicode="A" horiz-adv-x="778"
                   d="M473 289h-216l-62 -109q-14 -24 -20 -35t-14.5 -29t-10 -26t-2.5 -19.5t5 -16t15.5 -9.5t26 -6.5t39.5 -0.5l-9 -40q-20 0 -61.5 1t-62.5 1t-62.5 -1t-62.5 -1l9 40q12 0 20.5 0.5t17 4t14 5.5t13 9.5t11.5 12t12.5 17t13 20t15.5 26t18 30.5l316 527h120l87 -559
q5 -27 9 -40.5t13.5 -28.5t27 -20.5t44.5 -3.5l-9 -40q-27 0 -80.5 1t-80.5 1t-80.5 -1t-80.5 -1l9 40q3 0 13 0.5t14 1t13 1t12.5 2t10 3.5t9.5 5.5t6 7.5t4 10.5t0 13.5q-1 4 -2 27.5t-4 43.5zM282 335h186l-37 253z"/>
            <glyph glyph-name="B" unicode="B" horiz-adv-x="667"
                   d="M271 338l-60 -294h55q86 0 134.5 50.5t48.5 132.5q0 55 -28.5 84.5t-83.5 26.5h-66zM-23 -2l9 40q54 3 67.5 16t28.5 76l91 430q7 36 8.5 52.5t-9 26.5t-24 11.5t-48.5 1.5l9 40q26 0 78.5 -1t78.5 -1q61 0 179 2q34 0 60.5 -3t54.5 -11.5t46 -23.5t29.5 -41.5
t11.5 -62.5q0 -86 -55 -133t-143 -51v-8q155 -8 155 -146q0 -57 -22.5 -99.5t-62 -67t-86.5 -36t-102 -11.5q-33 0 -98.5 1t-98.5 1q-26 0 -79 -0.5t-78 -1.5zM338 649l-57 -268h86q60 0 95 52t35 118q4 41 -21 69t-65 29h-73z"/>
            <glyph glyph-name="C" unicode="C" horiz-adv-x="722"
                   d="M591 221h78l-9 -34q-18 -58 -34 -155q-63 -32 -220 -42q-151 0 -237 65.5t-86 204.5q0 166 71 279q56 90 138 128t197 38q53 0 137 -13t115 -33q-16 -60 -28 -158l-4 -18h-70q0 12 2 35t2 34q0 55 -39 82t-96 27q-62 0 -110.5 -29.5t-77.5 -74.5t-48 -105t-26 -115.5
t-7 -111.5q0 -89 41.5 -140t127.5 -51q83 0 122 47.5t61 139.5z"/>
            <glyph glyph-name="D" unicode="D" horiz-adv-x="778"
                   d="M97 130l96 430q7 28 7.5 44.5t-1.5 26.5t-15.5 14t-25.5 5.5t-41 1.5l9 40q26 0 78.5 -1t78.5 -1q30 0 90 1t90 1q146 2 213.5 -56t67.5 -202q0 -103 -35.5 -199t-105.5 -159q-15 -14 -33.5 -25.5t-32.5 -19t-38.5 -13.5t-35 -9t-41 -5.5t-37 -3t-42 -1.5t-39.5 -1
q-26 0 -77 1t-76 1q-27 0 -81 -1t-81 -1l9 40q58 3 73 16.5t26 75.5zM409 648h-51q-116 -528 -130 -603h70q80 0 139 37t91 100.5t46.5 134.5t14.5 152q0 97 -43 139t-137 40z"/>
            <glyph glyph-name="E" unicode="E" horiz-adv-x="667"
                   d="M-16 -2l9 40q57 3 74.5 17.5t28.5 74.5l93 430q5 23 6.5 38t-2 25.5t-7.5 16t-18 8.5t-24.5 3.5t-35.5 0.5l9 40q26 0 78.5 -1t78.5 -1q69 0 206.5 1t206.5 1q-6 -21 -19.5 -95t-17.5 -84h-66q0 11 3 49t-1 43q-2 10 -7.5 17.5t-15.5 11.5t-18 7t-22.5 4t-21.5 1.5
t-22.5 0t-17.5 -0.5h-107l-55 -259h57q56 0 73.5 16t28.5 74h60q-32 -152 -45 -235h-61q7 34 7 57q-3 46 -55 46h-75l-60 -296h105q103 0 135 26t55 123h74q-36 -147 -44 -200q-68 0 -206 1t-206 1q-26 0 -79.5 -0.5t-78.5 -1.5z"/>
            <glyph glyph-name="F" unicode="F" horiz-adv-x="611"
                   d="M360 646l-55 -259h57q61 0 80 15.5t30 70.5h60q-29 -128 -45 -241h-61q7 48 7 67q-3 46 -63 46h-75l-42 -205q-8 -38 -10 -55q-3 -28 16.5 -35t85.5 -12l-9 -40q-32 0 -94 1t-94 1q-26 0 -79.5 -0.5t-78.5 -1.5l9 40q56 3 73 17.5t30 74.5l93 430q5 23 6.5 38t-2 25.5
t-7.5 16t-18 8.5t-24.5 3.5t-35.5 0.5l9 40q26 0 78.5 -1t78.5 -1q68 0 203.5 0.5t201.5 1.5q-6 -21 -19.5 -95t-17.5 -84h-66q0 11 3 49t-1 43q-2 10 -7 17.5t-14 11.5t-16.5 7t-21 4t-20 1.5t-21 0t-17.5 -0.5h-107z"/>
            <glyph glyph-name="G" unicode="G" horiz-adv-x="778"
                   d="M709 478h-72q44 182 -121 184q-53 0 -92.5 -15t-66.5 -46t-45 -66t-37 -89q-34 -101 -34 -223q0 -190 161 -190q30 0 52 6t37 22t24 31t15.5 45t9.5 49t7 59q3 28 -12 34t-61 5h-24l9 40q26 0 78.5 -1t79.5 -1q26 0 78.5 1t78.5 1l-9 -40q-28 -1 -36 -2t-20 -12
t-17 -31.5t-13 -64.5l-25 -137q-64 -17 -92 -23.5t-80 -15t-95 -8.5q-302 0 -302 277q0 84 25.5 169t74.5 144q59 70 135.5 97.5t179.5 27.5q55 1 138 -15t109 -36q-26 -106 -38 -176z"/>
            <glyph glyph-name="H" unicode="H" horiz-adv-x="778"
                   d="M289 384h263l37 176q7 36 8.5 52.5t-9 26.5t-24 11.5t-48.5 1.5l9 40q26 0 78.5 -1t78.5 -1q27 0 81 1t81 1l-9 -40q-57 -3 -71 -16t-25 -76l-96 -430q-7 -36 -8.5 -52.5t9.5 -26.5t25.5 -11.5t51.5 -1.5l-9 -40q-27 0 -81 1t-81 1t-81 -1t-81 -1l9 40q57 3 70.5 16
t25.5 76l49 208h-262l-44 -208q-7 -36 -8.5 -52.5t9.5 -26.5t25.5 -11.5t51.5 -1.5l-9 -40q-27 0 -81 1t-81 1t-81 -1t-81 -1l9 40q57 3 71 16t25 76l96 430q7 36 8.5 52.5t-9 26.5t-24 11.5t-48.5 1.5l9 40q26 0 78.5 -1t78.5 -1q27 0 81 1t81 1l-9 -40q-57 -3 -70.5 -16
t-25.5 -76z"/>
            <glyph glyph-name="I" unicode="I" horiz-adv-x="389"
                   d="M344 560l-96 -430q-7 -36 -8.5 -52.5t9.5 -26.5t25.5 -11.5t51.5 -1.5l-9 -40q-27 0 -81 1t-81 1t-81 -1t-81 -1l9 40q57 3 71 16t25 76l96 430q7 36 8.5 52.5t-9 26.5t-24 11.5t-48.5 1.5l9 40q26 0 78.5 -1t78.5 -1q27 0 81 1t81 1l-9 -40q-57 -3 -71 -16t-25 -76z"/>
            <glyph glyph-name="J" unicode="J" horiz-adv-x="389"
                   d="M354 560l-96 -450q-16 -74 -28 -110q-26 -95 -98.5 -153t-171.5 -66l-6 34q24 4 44.5 16t35 35t24 40t18.5 51t12 45.5t10 45.5l106 512q5 24 7 38t-1 25.5t-6.5 16t-17 8t-25.5 4t-39 0.5l9 40q29 0 84 -0.5t82 -1.5q27 1 82.5 1.5t83.5 0.5l-9 -40q-60 -3 -74.5 -16
t-25.5 -76z"/>
            <glyph glyph-name="K" unicode="K" horiz-adv-x="722"
                   d="M291 337l-45 -207q-7 -36 -8.5 -52.5t9 -26.5t23.5 -11.5t48 -1.5l-9 -40q-25 1 -77.5 1.5t-78.5 0.5q-27 0 -81 -1t-81 -1l9 40q57 3 71.5 16.5t28.5 77.5q56 217 92 428q7 36 8.5 52.5t-9 26.5t-24 11.5t-48.5 1.5l9 40q26 0 78.5 -1t78.5 -1q27 0 81 1t81 1l-9 -40
q-57 -3 -71 -16t-27 -76l-45 -199h7q34 30 113.5 98.5t138.5 123.5q21 19 32.5 31t24 34t14.5 44q15 0 44.5 -1t43.5 -1q15 0 44.5 1t43.5 1l-9 -41q-24 -1 -41 -4t-28 -5t-26 -11.5t-21 -14.5l-27 -22.5t-32 -26.5l-188 -162l174 -310q10 -18 18.5 -28.5t25 -19.5t37.5 -9
l-7 -40q-16 0 -48 1t-48 1t-48.5 -1t-48.5 -1q1 4 -15 35t-41.5 78t-49.5 90t-48.5 86t-28.5 50h-10z"/>
            <glyph glyph-name="L" unicode="L" horiz-adv-x="611"
                   d="M-16 -2l4 40q57 3 71 16t25 76l96 430q7 36 8.5 52.5t-9 26.5t-24 11.5t-48.5 1.5l9 40q26 0 78.5 -1t78.5 -1q29 1 87 1.5t89 0.5l-9 -40q-68 -3 -83.5 -16t-26.5 -76l-112 -511h110q35 0 60.5 3.5t44.5 13.5t30 19.5t21 31.5t15.5 38.5t14.5 50.5h72q-16 -50 -52 -208
q-66 0 -197 1t-196 1q-26 0 -79 -0.5t-78 -1.5z"/>
            <glyph glyph-name="M" unicode="M" horiz-adv-x="944"
                   d="M901 567l-96 -449q-7 -31 -6 -41q2 -21 19 -29.5t65 -9.5l-11 -40q-27 0 -79.5 1t-79.5 1t-80.5 -1t-79.5 -1l9 40q24 1 32.5 1.5t22 5t17 9t10.5 17.5t10 27.5t9 41.5l97 449h-4l-356 -589h-36l-122 581h-4l-81 -410q-1 -6 -5.5 -38.5t-4.5 -50.5q0 -12 3.5 -20.5
t9 -12.5t16 -7t17 -3.5l19.5 -1.5t18 -1l-9 -38q-18 0 -56 1t-56 1q-19 0 -56.5 -1t-56.5 -1l9 39q46 6 57 19.5t30 89.5l111 477q-5 10 -11.5 16t-16.5 8.5t-17 3t-21 1t-20 0.5l8 40q20 0 60.5 -1t60.5 -1t60 1t60 1l104 -487l293 487q21 0 61.5 -1t60.5 -1t60.5 1t60.5 1
l-9 -40q-25 -2 -30 -2.5t-20 -3.5t-17 -7t-10 -14t-11 -23t-8 -35z"/>
            <glyph glyph-name="N" unicode="N" horiz-adv-x="778"
                   d="M84 108l25 99l94 411q-7 17 -27.5 25t-32.5 8.5t-39 0.5l9 40q19 0 57 -1t57 -1t56.5 1t56.5 1l257 -554h3l80 391q9 57 9 68q0 14 -0.5 23t-5 15t-6.5 9.5t-12 5t-15 1.5t-22 0.5t-27 0.5l9 40q20 0 61 -1t61 -1t60.5 1t60.5 1l-9 -40q-13 -3 -28 -3.5t-21.5 -2
t-14.5 -6.5t-14 -21.5t-14 -43t-20 -74.5l-115 -501h-119l-259 553h-3l-70 -329q-3 -18 -11 -67.5t-12 -68.5q-5 -24 13 -35.5t75 -14.5l-4 -40q-19 0 -58 1t-59 1t-59 -1t-59 -1l7 40q48 4 60.5 14.5t24.5 55.5z"/>
            <glyph glyph-name="O" unicode="O" horiz-adv-x="833"
                   d="M497 666q-139 0 -199 -163q-58 -143 -58 -289q0 -89 37 -137t122 -48q64 0 114.5 50.5t78 125t41.5 146.5t14 128q0 87 -33.5 137t-116.5 50zM88 263q0 99 35 198q88 244 360 244q142 0 229.5 -67.5t87.5 -203.5q0 -96 -36 -193.5t-102 -156.5q-60 -56 -125.5 -75
t-160.5 -19q-130 0 -209 72.5t-79 200.5z"/>
            <glyph glyph-name="P" unicode="P" horiz-adv-x="667"
                   d="M286 299l-35 -169q-5 -24 -7 -38t1 -25.5t7 -16t18 -8t26.5 -4t40.5 -0.5l-9 -40q-30 0 -86 0.5t-84 1.5q-27 0 -81 -1t-81 -1l9 40q57 3 71 16t25 76l97 448q10 52 -5 63t-69 11h-10l9 40q28 0 85 -1t86 -1q24 0 72.5 1t72.5 1q43 1 73.5 -1.5t63 -12t53 -27.5
t33.5 -49.5t13 -76.5q0 -43 -16 -83q-25 -65 -69 -94t-120 -43q-45 -8 -92 -6h-92zM361 648l-67 -311h46q97 -2 134.5 48.5t48.5 155.5q7 73 -37.5 94t-124.5 13z"/>
            <glyph glyph-name="Q" unicode="Q" horiz-adv-x="833"
                   d="M497 666q-57 0 -103.5 -33t-74 -82.5t-46.5 -112.5t-26 -118.5t-7 -105.5q0 -130 75 -168q23 15 63 15q33 0 75 -22q42 16 76 55.5t54.5 93t32.5 99.5t20 94q11 66 11 98q0 87 -33.5 137t-116.5 50zM267 -110h-32q-11 68 34 117q-181 55 -181 256q0 99 35 198
q88 244 360 244q142 0 229.5 -67.5t87.5 -203.5q0 -95 -31.5 -184.5t-100.5 -159.5t-162 -87q7 -5 50.5 -43t74.5 -56t58 -18q40 0 50.5 29t-5.5 61l30 11q23 -40 17 -80.5t-39 -73.5t-94 -33q-38 0 -77 19t-69.5 46t-59 54.5t-56.5 46.5t-52 19q-37 0 -53 -27.5t-14 -67.5z
"/>
            <glyph glyph-name="R" unicode="R" horiz-adv-x="667"
                   d="M341 648l-59 -268h75q58 0 100.5 47.5t42.5 119.5q0 60 -24.5 80.5t-85.5 20.5h-49zM273 338l-44 -208q-7 -36 -8.5 -52.5t9 -26.5t23.5 -11.5t48 -1.5l-9 -40q-25 1 -77.5 1.5t-78.5 0.5t-78 -0.5t-76 -1.5l9 40q51 3 64.5 16t29.5 76l93 448q4 18 4.5 31t-4 21
t-8.5 12.5t-16 6.5t-20 2.5t-27 0.5h-9l9 40q26 -1 81.5 -1.5t83.5 -0.5q25 0 75.5 1t75.5 1q37 1 65 -1t61 -10.5t54 -23.5t35 -43.5t14 -67.5q0 -85 -53.5 -125.5t-145.5 -53.5v-7q66 -2 98 -27.5t32 -87.5q-3 -37 -13 -89t-11 -63q-2 -29 14 -42t64 -13l-7 -45
q-1 0 -48.5 -0.5t-57.5 -0.5q-53 0 -79.5 21t-26.5 73q0 35 12 89q11 59 11 73q0 57 -27.5 74.5t-89.5 15.5h-51z"/>
            <glyph glyph-name="S" unicode="S" horiz-adv-x="667"
                   d="M609 491h-66q2 11 3.5 33t2.5 28q-3 110 -127 110q-62 0 -98.5 -34t-36.5 -95q0 -25 9.5 -44t31 -33.5t35.5 -21t43 -18.5q38 -16 58 -25t50.5 -27.5t45.5 -37t27 -47t12 -63.5q0 -63 -23 -108.5t-64.5 -70.5t-90.5 -36t-110 -11q-142 0 -249 50q25 69 40 180h73
q-11 -38 -11 -79q0 -55 37.5 -83t95.5 -28q69 0 112.5 34.5t43.5 101.5q0 25 -8 44t-26.5 33.5t-32 22t-42.5 20.5l-68 31q-127 58 -127 172q0 110 74.5 163t189.5 53q138 0 235 -50q-26 -93 -39 -164z"/>
            <glyph glyph-name="T" unicode="T" horiz-adv-x="667"
                   d="M118 690h620q-25 -112 -40 -190h-68q1 7 3 24t3.5 32t1.5 24q0 19 -6 32t-13 19.5t-23.5 9.5t-24.5 3.5t-30.5 0t-28.5 -0.5h-18l-111 -514q-7 -36 -8.5 -52.5t9.5 -26.5t25.5 -11.5t51.5 -1.5l-9 -40q-27 0 -81 1t-81 1q-28 -1 -84.5 -1.5t-86.5 -0.5l9 40q64 3 79 16
t26 76l114 514h-81q-22 0 -39.5 -8t-30 -26t-19.5 -31.5t-18 -40.5t-16 -38h-71q36 116 46 190z"/>
            <glyph glyph-name="U" unicode="U" horiz-adv-x="778"
                   d="M122 265l60 295q7 36 8.5 52.5t-9 26.5t-24 11.5t-48.5 1.5l9 40q26 0 78.5 -1t78.5 -1q27 0 81 1t81 1l-9 -40q-57 -3 -71 -16t-25 -76l-72 -339q-7 -37 -7 -56q0 -65 45 -94t115 -29q46 0 80 12t55 31t36 50t24 61.5t19 73.5q1 7 2 10l49 230q15 59 13 106q0 5 -1 9.5
t-2.5 7.5t-4 5.5t-5 4.5t-7.5 3t-9 2t-11.5 1.5t-13 0.5t-16 1t-18.5 1l7 40q20 0 61 -1t61 -1q21 0 61.5 1t60.5 1l-8 -40q-7 -1 -22 -2.5t-18.5 -1.5t-13 -3t-11.5 -5.5t-8.5 -11t-8.5 -15.5t-7.5 -23.5t-9 -31.5t-10.5 -43l-82 -342q-25 -101 -98 -142t-187 -41
q-45 0 -87 8t-83.5 26t-66.5 53t-25 84q0 38 14 104z"/>
            <glyph glyph-name="V" unicode="V" horiz-adv-x="722"
                   d="M388 122l221 394q45 82 43 108q-1 9 -6.5 14.5t-15.5 8t-18 3.5t-21.5 1.5t-17.5 0.5l9 40q20 0 59.5 -1t59.5 -1t59.5 1t59.5 1l-9 -40q-13 -1 -23.5 -3.5t-19 -7t-13.5 -7t-11 -10t-8.5 -10.5t-9.5 -13.5t-9 -14.5q-185 -282 -344 -586h-114l-65 517q-15 95 -24 111
q-11 19 -46 22q-9 1 -31 2l9 40q27 0 81 -1t81 -1t81 1t81 1l-9 -40h-16h-16t-14 -1t-13.5 -3t-10 -5.5t-9 -8.5t-4.5 -13.5t-2 -18.5q0 -24 4 -68z"/>
            <glyph glyph-name="W" unicode="W" horiz-adv-x="1000"
                   d="M331 150l252 542h119l16 -553h2l130 274q88 185 88 215q0 6 -3.5 10.5t-10 7t-12.5 4t-16 2t-15 0.5h-14h-9l9 40q18 0 55 -1t55 -1t54.5 1t54.5 1l-9 -39q-46 -12 -63 -34t-62 -115l-253 -504h-118l-17 523h-2l-253 -523h-111l-21 541q-3 77 -14.5 92t-60.5 18
q-7 1 -10 1l9 40q26 0 78 -1t78 -1t77.5 1t77.5 1l-9 -40q-53 0 -68.5 -13.5t-15.5 -66.5l10 -422h2z"/>
            <glyph glyph-name="X" unicode="X" horiz-adv-x="722"
                   d="M322 328l-126 264q-18 40 -34.5 49t-66.5 11l9 40q27 0 82.5 -1t83.5 -1q27 0 82.5 1t83.5 1l-9 -40q-62 2 -73 -27q-6 -14 29 -87l53 -111l112 122q50 54 50 75q1 10 -4 16.5t-15.5 8.5t-25 3t-30.5 0l9 40q22 0 65.5 -1t65.5 -1t65.5 1t64.5 1l-9 -40q-28 0 -52.5 -10
t-37 -20t-33.5 -30l-57 -56l-149 -153l155 -320q3 -6 7.5 -9.5t12.5 -6t13 -3.5t18 -3t19 -3l-9 -40q-24 0 -72.5 1t-72.5 1q-29 0 -87 -1t-87 -1l9 40q50 4 60 12q8 8 8 22q0 19 -16.5 59.5t-39.5 87.5t-29 62l-132 -138q-1 -1 -9 -10.5t-13.5 -16t-12.5 -16t-11 -17.5
t-4 -13q0 -7 1.5 -12.5t6 -8.5t8.5 -5t11.5 -3t13.5 -1.5t17.5 -1t18.5 -0.5l-9 -40q-20 0 -60.5 1t-60.5 1q-21 0 -64 -1t-65 -1l10 40q37 5 48.5 10t38.5 32z"/>
            <glyph glyph-name="Y" unicode="Y" horiz-adv-x="667"
                   d="M414 354l121 158q67 88 67 111q0 11 -6 17.5t-20 8.5t-22 2.5t-28 0.5l9 40q20 0 58.5 -1t57.5 -1q20 0 58 1t58 1l-9 -40q-12 -1 -18.5 -2.5t-13 -2t-11.5 -4t-8.5 -5t-9.5 -8t-9.5 -10.5t-13 -15t-16.5 -19l-227 -285l-41 -171q-5 -24 -7 -38t1 -25.5t6.5 -16t18 -8
t26.5 -4t40 -0.5l-9 -40q-29 0 -85 0.5t-84 1.5q-28 -1 -83 -1.5t-84 -0.5l9 40q61 3 75.5 16t25.5 76l39 164l-86 244q-12 32 -16 42t-13 28t-14 22t-16.5 11t-23.5 8.5t-32 2.5l9 40q28 0 84 -1t84 -1t84 1t84 1l-9 -40q-13 0 -27.5 -0.5t-27 -1.5t-21 -10t-8.5 -25
q0 -22 27 -103z"/>
            <glyph glyph-name="Z" unicode="Z" horiz-adv-x="722"
                   d="M726 654l-501 -605h161h11q44 0 63.5 1t46 7t39.5 19t28.5 36.5t29.5 61.5l10 26h73q-40 -141 -50 -200h-613l4 32l504 612h-170q-36 0 -64.5 -8t-44 -20t-28 -29t-17.5 -31t-10.5 -31.5t-9.5 -24.5h-73q3 12 15.5 57t21.5 80t12 53h568z"/>
            <glyph glyph-name="bracketleft" unicode="[" horiz-adv-x="333"
                   d="M398 745l-11 -46h-91l-173 -778h116l-14 -46h-224q113 408 189 870h208z"/>
            <glyph glyph-name="backslash" unicode="\" horiz-adv-x="606"
                   d="M73 745h94l387 -755h-94z"/>
            <glyph glyph-name="bracketright" unicode="]" horiz-adv-x="333"
                   d="M215 699h-115l12 46h224q-63 -249 -189 -870h-204l7 46h92l24 103z"/>
            <glyph glyph-name="asciicircum" unicode="^" horiz-adv-x="606"
                   d="M160 287h-97l200 403h79l201 -403h-97l-143 279z"/>
            <glyph glyph-name="underscore" unicode="_" horiz-adv-x="500"
                   d="M500 -150h-500v50h500v-50z"/>
            <glyph glyph-name="grave" unicode="`" horiz-adv-x="333"
                   d="M237 672l101 -138h-50l-123 78q-15 10 -23 15.5t-16 18t-8 25.5q0 19 15.5 33t34.5 14q36 0 69 -46z"/>
            <glyph glyph-name="a" unicode="a" horiz-adv-x="611"
                   d="M335 433q-35 2 -64 -35t-44.5 -90t-24 -101.5t-8.5 -78.5t16 -55t44 -26q29 -2 53 13.5t39.5 45t26.5 60t17.5 70t9.5 62.5t5 49q3 36 -15 61t-55 25zM435 413l8 57h133l-80 -366q-6 -24 -6 -41q0 -6 2 -10.5t6.5 -7t8.5 -4t11.5 -2.5t11.5 -1.5t13 -0.5h12l-8 -37h-198
l16 64l-2 2q-31 -40 -66 -58t-85 -18q-79 5 -120.5 52.5t-37.5 128.5q0 129 66 219t189 90q90 0 124 -67h2z"/>
            <glyph glyph-name="b" unicode="b" horiz-adv-x="611"
                   d="M355 426q-36 0 -65.5 -36t-45.5 -88t-24 -99.5t-8 -79.5q0 -39 19.5 -64t57.5 -25q33 0 61 35.5t43.5 86t24 96t8.5 74.5q0 100 -71 100zM166 54l-84 -54h-40l126 600l7 28l7 38q2 14 -1 22.5t-13 12t-18.5 4t-25.5 0.5h-5l8 40h209l-30 -145l-36 -169l2 -2q46 51 133 51
q78 0 120.5 -45t42.5 -124q0 -89 -27 -159.5t-89 -116t-152 -45.5q-40 0 -79 16t-55 48z"/>
            <glyph glyph-name="c" unicode="c" horiz-adv-x="500"
                   d="M457 313h-60q0 5 2.5 24.5t1.5 29.5q-3 64 -64 71q-40 5 -70.5 -30.5t-47 -92.5t-25 -107t-10.5 -92q0 -36 16 -60t51 -24q40 0 68 26.5t38 70.5q3 17 25 17h45q13 0 17 -8t0 -13q-30 -72 -79 -103.5t-128 -31.5q-84 0 -138 39.5t-54 120.5q0 93 35 182q29 73 90 110.5
t143 37.5q22 0 48 -3.5t41 -6.5t49 -10.5t43 -9.5q-8 -25 -37 -137z"/>
            <glyph glyph-name="d" unicode="d" horiz-adv-x="611"
                   d="M351 -2l17 69l-2 2q-25 -37 -65.5 -58t-85.5 -21q-72 0 -116 45t-44 117q0 58 14 114t42 105t76.5 79t111.5 30q96 0 135 -61l49 247q2 14 -1 22.5t-14 12t-19.5 4t-27.5 0.5h-6l8 40h214l-134 -623q-9 -33 -9 -50q0 -24 12.5 -29.5t52.5 -5.5l-9 -39q-16 0 -49 1t-50 1
q-16 0 -49.5 -1t-50.5 -1zM332 430q-36 0 -64 -38t-42.5 -92t-22 -101t-7.5 -77q0 -32 17 -53.5t48 -21.5q38 0 68.5 35t46.5 86t24 98t8 81q0 83 -76 83z"/>
            <glyph glyph-name="e" unicode="e"
                   d="M413 146h75q6 0 8 -4.5t0.5 -10.5t-3.5 -11t-4 -9q-29 -62 -90.5 -91.5t-136.5 -29.5q-95 0 -152 43.5t-57 135.5q0 139 70 225t206 86q195 0 195 -182q0 -42 -5 -63h-316q-12 -57 -12 -118q0 -39 25.5 -63t65.5 -24t72.5 26.5t40.5 66.5q4 23 18 23zM212 277h178
q0 11 3 35.5t3 38.5q0 89 -65 89q-12 0 -22.5 -3.5t-18.5 -7.5t-16.5 -13.5t-13.5 -15.5t-11.5 -19.5t-10 -20t-8.5 -22.5t-6.5 -21t-6 -21.5t-5.5 -18.5z"/>
            <glyph glyph-name="f" unicode="f" horiz-adv-x="380"
                   d="M291 470h121l-8 -39h-118q-89 -681 -331 -681q-32 0 -59 17.5t-27 60.5q-1 27 16.5 46.5t40.5 19.5q26 0 39 -16t11 -42q0 -33 21 -34q33 0 61.5 90t48.5 225l43 314h-102l8 39h101q13 113 63 185q63 90 168 90q49 0 79.5 -21.5t30.5 -68.5q0 -28 -15 -42t-40 -14
q-48 0 -51 36q-1 11 -1 34q0 11 -1 17t-7.5 13t-19.5 7q-17 0 -28 -14.5t-17 -41t-9 -54t-8 -64.5t-10 -62z"/>
            <glyph glyph-name="g" unicode="g"
                   d="M111 -12q-42 -34 -42 -86q0 -54 46 -81.5t104 -27.5q52 0 96 29t44 79q0 18 -4.5 31t-16.5 20.5t-19.5 12t-27.5 6t-26.5 1.5h-29.5q-89 2 -124 16zM440 465h124l-8 -42h-96q41 -43 41 -86q0 -97 -63.5 -142t-166.5 -45q-60 0 -108 18q-15 -24 -15 -40q0 -18 11.5 -28.5
t30 -13t42.5 -3t49 1t50 -0.5q55 -3 99 -31.5t47 -87.5q0 -106 -83.5 -160.5t-195.5 -54.5q-86 0 -147.5 35.5t-61.5 114.5q0 43 25.5 66.5t72.5 41.5q-7 7 -7 39q-1 29 16.5 72.5t37.5 65.5q-60 30 -60 109q0 92 63.5 139t158.5 47q30 0 144 -15zM373 363q2 76 -60 76
q-37 0 -63 -30t-36.5 -67t-10.5 -74q0 -80 62 -80q31 2 53.5 20.5t33.5 48t15.5 55t5.5 51.5z"/>
            <glyph glyph-name="h" unicode="h" horiz-adv-x="611"
                   d="M302 600l-42 -193l2 -2q73 75 159 75q54 0 93.5 -23t39.5 -74q0 -33 -13 -87l-43 -200q-6 -28 -6 -29q0 -30 66 -28l-9 -41q-17 0 -53 1t-53 1t-53 -1t-53 -1l69 298q7 27 7 52q0 55 -63 55q-86 0 -115 -122l-39 -181q-4 -18 -6 -36q0 -5 1 -8.5t4 -6t6 -4.5t8 -3
t8.5 -1.5t9.5 -1.5t9 -1h19l-8 -40q-21 1 -66.5 1.5t-67.5 0.5q-23 0 -69 -0.5t-69 -1.5l8 40h27q25 2 34.5 14.5t17.5 47.5l102 500l7 28l7 38q2 14 -1 22.5t-14 12t-19.5 4t-27.5 0.5h-6l8 40h214z"/>
            <glyph glyph-name="i" unicode="i" horiz-adv-x="333"
                   d="M292 470l-80 -370q-5 -20 -6 -37q0 -5 1 -8.5t4 -6t6 -4.5t8 -3t8.5 -1.5t9.5 -1.5t9 -1h24l-8 -39q-23 0 -69.5 1t-69.5 1t-69 -0.5t-69 -1.5l8 39h27q25 2 34.5 14.5t17.5 48.5l53 255l7 37q2 14 -1 22.5t-14 12t-19.5 4t-27.5 0.5h-6l8 39h214zM251 715q27 0 46.5 -19
t19.5 -46q0 -38 -21 -63t-59 -25q-27 0 -46.5 19t-19.5 46q0 38 21 63t59 25z"/>
            <glyph glyph-name="j" unicode="j" horiz-adv-x="333"
                   d="M78 470l214 10l-80 -380q-28 -138 -55.5 -202.5t-93.5 -103.5q-25 -15 -64 -29.5t-64 -14.5v32q32 12 55 37.5t37.5 66t22.5 70t16.5 80t11.5 64.5l53 255l7 37q2 14 -1 22.5t-14 12t-19.5 4t-27.5 0.5h-6zM251 715q27 0 46.5 -19t19.5 -46q0 -38 -21 -63t-59 -25
q-27 0 -46.5 19t-19.5 46q0 38 21 63t59 25z"/>
            <glyph glyph-name="k" unicode="k" horiz-adv-x="611"
                   d="M475 376l-116 -79l147 -216q1 -2 4.5 -7t5 -7t5 -6.5t6 -7t6 -5.5t7 -4.5t7.5 -2.5l25 -3l-8 -40q-14 0 -42.5 1t-43.5 1q-14 0 -43 -1t-44 -1l-149 243h-7l-29 -141q-1 -4 -2.5 -11.5t-2.5 -13.5t-1 -11t1 -8.5t4 -6t6 -4.5t8 -3t8.5 -1.5t9.5 -1.5t9 -1h24l-8 -40
q-23 0 -69.5 1t-69.5 1t-69 -0.5t-69 -1.5l8 40h27q25 2 34.5 14.5t17.5 47.5l102 500l7 28l7 38q2 14 -1 22.5t-14 12t-19.5 4t-27.5 0.5h-6l8 40h214l-30 -145l-73 -329h9l175 132q22 15 23 23q1 6 -25 16l5 28q17 0 51 -1t51 -1t51 1t51 1l-6 -39q-74 -4 -149 -55z"/>
            <glyph glyph-name="l" unicode="l" horiz-adv-x="333"
                   d="M346 745l-30 -145l-106 -500q-4 -18 -6 -36q0 -5 1 -8.5t4 -6t6 -4.5t8 -3t8.5 -1.5t9.5 -1.5t9 -1h24l-8 -40q-23 0 -69.5 1t-69.5 1t-69 -0.5t-69 -1.5l8 40h27q25 2 34.5 14.5t17.5 47.5l102 500l7 28l7 38q2 14 -1 22.5t-14 12t-19.5 4t-27.5 0.5h-6l8 40h214z"/>
            <glyph glyph-name="m" unicode="m" horiz-adv-x="889"
                   d="M275 470l-17 -72q39 40 76.5 58.5t87.5 18.5q106 0 120 -81q73 81 169 81q53 0 89.5 -24.5t36.5 -74.5q0 -26 -12 -79l-48 -232q-3 -17 5.5 -21t46.5 -6q7 -1 10 -1l-8 -39q-17 0 -52 1t-53 1q-17 0 -52.5 -1t-53.5 -1l61 269q16 67 16 86q0 24 -15.5 36t-39.5 12
q-28 0 -48 -9.5t-32.5 -30t-19 -37t-14.5 -46.5q-9 -32 -40 -178q-4 -18 -6 -36q0 -5 1 -8.5t4 -6t6 -4.5t8 -3t8.5 -1.5t9.5 -1.5t9 -1h20l-8 -40q-21 1 -67 1.5t-68 0.5t-65.5 -0.5t-62.5 -1.5l8 40h17q25 2 34.5 14.5t17.5 47.5l41 189q10 44 10 70q0 19 -16.5 31.5
t-36.5 12.5q-52 0 -78.5 -37t-40.5 -97l-37 -169q-4 -18 -6 -36q0 -5 1 -8.5t4 -6t6 -4.5t8 -3t8.5 -1.5t9.5 -1.5t9 -1h14l-8 -40q-19 1 -63 1.5t-66 0.5q-23 0 -68 -0.5t-66 -1.5l8 40h23q25 2 34.5 14.5t17.5 47.5l52 235q11 44 11 62q0 16 -13.5 24t-24 9t-31.5 2l8 38
h211z"/>
            <glyph glyph-name="n" unicode="n" horiz-adv-x="611"
                   d="M277 470l-17 -70l2 -2q66 77 166 77q55 0 94.5 -24.5t33.5 -66.5q-6 -48 -16 -96t-22.5 -104t-18.5 -84q-8 -42 3.5 -53t58.5 -13l-8 -36q-18 0 -54.5 1t-54.5 1t-54.5 -1t-54.5 -1q82 315 79 364q-1 19 -19 30t-39 11q-22 0 -39.5 -5.5t-30.5 -20t-21.5 -24.5
t-16.5 -34.5t-10.5 -34t-9 -39t-7.5 -34.5l-23 -111q-4 -18 -6 -36q0 -5 1 -8.5t4 -6t6 -4.5t8 -3t8.5 -1.5t9.5 -1.5t9 -1h14l-8 -40q-19 1 -63 1.5t-66 0.5q-23 0 -68 -0.5t-66 -1.5l8 40h23q25 2 34.5 14.5t17.5 47.5l52 235q11 44 11 62q0 16 -13.5 24t-24 9t-31.5 2
l8 38h211z"/>
            <glyph glyph-name="o" unicode="o"
                   d="M315 480q56 0 103 -15.5t80 -54.5t33 -96q-1 -53 -8.5 -96.5t-26.5 -87t-49.5 -73.5t-81 -48.5t-117.5 -18.5q-93 0 -147 45.5t-54 135.5q0 141 66.5 225t201.5 84zM321 441q-36 0 -64.5 -40.5t-43 -98t-21.5 -107t-7 -81.5q0 -85 63 -85q39 -1 69.5 40.5t45.5 101.5
t22 111.5t7 85.5q0 33 -19 53t-52 20z"/>
            <glyph glyph-name="p" unicode="p" horiz-adv-x="611"
                   d="M361 419q-39 0 -69.5 -36t-45.5 -88t-22.5 -98.5t-7.5 -79.5q0 -35 19 -57.5t53 -22.5q37 0 66.5 33.5t44.5 82.5t22.5 94t7.5 78q0 94 -68 94zM277 470l-17 -68l2 -2q38 45 67.5 62.5t81.5 17.5q74 0 118.5 -45.5t44.5 -119.5q0 -82 -26.5 -154t-86.5 -121.5t-143 -49.5
q-84 0 -126 52l-42 -192q-5 -20 -6 -37q0 -5 1 -8.5t4 -6t6 -4.5t8 -3t8.5 -1.5t9.5 -1.5t9 -1h24l-8 -39q-92 2 -139 2q-48 0 -138 -2l8 39h27q25 2 34.5 14.5t17.5 48.5l100 485q11 44 11 62q0 16 -13.5 24t-24 9t-31.5 2l8 38h211z"/>
            <glyph glyph-name="q" unicode="q" horiz-adv-x="611"
                   d="M338 432q-36 0 -64.5 -36t-43.5 -88.5t-22.5 -100.5t-7.5 -81q0 -37 18 -60t53 -23q34 0 62.5 37.5t44 89.5t23.5 98.5t8 74.5q0 89 -71 89zM455 432l109 48l17 -10l-133 -620q-5 -20 -6 -37q0 -5 1 -8.5t4 -6t6 -4.5t8 -3t8.5 -1.5t9.5 -1.5t9 -1h20l-8 -39
q-21 1 -67 1.5t-68 0.5q-24 -1 -73 -1.5t-75 -0.5l8 39h37q25 2 34.5 14.5t17.5 48.5l40 189l-2 2q-31 -31 -58.5 -41t-74.5 -10q-76 0 -118.5 47t-42.5 124q0 59 14 113.5t42 101.5t76 75.5t110 28.5q98 0 155 -48z"/>
            <glyph glyph-name="r" unicode="r" horiz-adv-x="444"
                   d="M276 470l-24 -80l2 -2q76 92 146 92q76 0 76 -77q5 -39 -12.5 -63.5t-53.5 -25.5q-11 0 -19.5 2.5t-13 6t-7.5 11t-4 11.5t-1.5 12t-0.5 9q3 10 -3.5 21t-24.5 11q-40 0 -65.5 -46t-35.5 -96l-33 -156q-4 -18 -6 -36q0 -5 1 -8.5t4 -6t6 -4.5t8 -3t8.5 -1.5t9.5 -1.5
t9 -1h29l-8 -40q-25 0 -72.5 0.5t-71.5 1.5q-23 0 -69 -0.5t-69 -1.5l8 40h27q25 2 34.5 14.5t17.5 47.5l52 235q11 44 11 62q0 16 -13.5 24t-24 9t-31.5 2l8 38h206z"/>
            <glyph glyph-name="s" unicode="s" horiz-adv-x="444"
                   d="M392 461l36 -12q-17 -62 -21 -117h-52q3 108 -82 108q-41 0 -67 -19t-26 -59q0 -12 6.5 -23t13 -17t22.5 -13.5t21 -9.5t23 -8q30 -11 44 -17t35 -18t30 -24.5t16.5 -33.5t7.5 -48q0 -42 -19 -74t-50.5 -50t-68 -27t-76.5 -9q-114 0 -171 38q21 72 26 126h52
q2 -67 22.5 -96t76.5 -29q37 0 63.5 19t26.5 55q1 27 -20.5 45t-52.5 29t-63 25t-54 43.5t-22 73.5q0 77 61.5 119t141.5 42q53 0 120 -19z"/>
            <glyph glyph-name="t" unicode="t" horiz-adv-x="333"
                   d="M165 616l148 32l-44 -178h106l-9 -41h-107l-64 -291q-11 -53 -6 -68q8 -20 38 -20q26 0 64 20l7 -31l-16 -11q-68 -38 -133 -38q-39 0 -68.5 21t-29.5 58q0 24 10 66l64 294h-75l8 41h75z"/>
            <glyph glyph-name="u" unicode="u" horiz-adv-x="611"
                   d="M345 -2l14 68q-42 -42 -79.5 -59t-95.5 -17q-51 0 -84.5 24.5t-33.5 73.5q0 33 12 89l41 193q4 16 3.5 26.5t-2.5 16t-9.5 9t-13.5 4.5t-19.5 2.5l-22.5 2.5l8 39h217l-68 -306q-13 -38 -4.5 -68.5t53.5 -30.5q43 0 72.5 23t38.5 64l48 214q4 21 4.5 32t-4.5 17t-9.5 7.5
t-21 3.5t-28.5 5l6 39h208l-73 -346q-14 -57 -8 -70.5t58 -18.5l-8 -37q-16 0 -49 1t-50 1t-50 -1t-50 -1z"/>
            <glyph glyph-name="v" unicode="v"
                   d="M492 355l-232 -357q-8 0 -24 1t-24 1t-24 -1t-24 -1l-50 362q0 3 -1.5 12.5t-2 12t-1.5 10t-2.5 9.5t-4 7.5t-5.5 7.5l-7.5 5t-9.5 4.5t-12 3t-16 1.5l8 39q21 0 63.5 -1t63.5 -1q20 0 62 0.5t61 1.5l-8 -39h-9h-9h-8t-7.5 -1t-6.5 -2t-6 -2.5t-4.5 -4t-3.5 -6t-2 -8
t-1 -9.5q0 -15 4 -47l31 -242q1 2 26 40t45 70.5t45 74t39.5 71.5t15.5 42q0 7 -4 12t-12 7t-14.5 3t-17 1.5t-13.5 0.5l8 39q16 -1 49 -1.5t49 -0.5t49 1t49 1l-8 -39q-25 -1 -39 -11t-31 -33z"/>
            <glyph glyph-name="w" unicode="w" horiz-adv-x="833"
                   d="M543 472l36 -354q1 2 21 37t38.5 69.5t40 74t35 67.5t13.5 34t-2 11t-6.5 8.5t-8.5 6t-12.5 4t-12 2t-13.5 1.5t-12 1l8 38q17 0 50 -1t50 -1q16 0 49 1t50 1l-8 -40q-11 0 -21 -2.5t-18.5 -9t-14.5 -11t-13.5 -15.5t-10.5 -15.5t-11 -18.5t-10 -17l-155 -272l-41 -73
q-9 0 -27 1t-27 1t-27 -1t-27 -1l-3 70q-12 195 -27 256l-188 -326q-10 0 -28.5 1t-27.5 1q-10 0 -28 -1t-28 -1l-12 330q-6 79 -12 88q-3 4 -8 6.5t-10 3.5t-17 3t-21 4l8 39q22 0 65.5 -1t65.5 -1q21 0 64.5 1t65.5 1l-8 -41q-41 -1 -51.5 -16t-10.5 -54l8 -244
q13 24 88 153.5t109 201.5q8 0 23.5 -1t23.5 -1q7 0 22.5 1t23.5 1z"/>
            <glyph glyph-name="x" unicode="x"
                   d="M117 123l99 91l-91 165q-13 23 -22 33.5t-14 13t-18 5.5t-25 8l8 33q22 0 65.5 -1t65.5 -1t65.5 1t65.5 1l-8 -33q-35 -3 -42 -12q-2 -4 -3 -9q0 -11 16 -41l42 -77q3 3 18 17t28 27t27.5 28.5t23 28t7.5 19.5q-4 13 -46 19l8 33q17 0 49 -1t49 -1q16 0 49 1t49 1l-8 -32
q-33 -5 -61.5 -25t-64.5 -55l-109 -95l94 -170q21 -39 39 -49.5t58 -10.5l-8 -37q-23 0 -68.5 1t-68.5 1t-68.5 -1t-68.5 -1l8 35q16 -2 31.5 3.5t10.5 18.5q-14 38 -31 63l-33 60l-67 -67q-39 -41 -41 -62q1 -15 53 -15l-8 -36q-17 0 -50.5 1t-49.5 1q-17 0 -50.5 -1
t-50.5 -1l8 38q10 1 18.5 3t16.5 5.5t12 5t12 7t9.5 7t11 9.5t11.5 9z"/>
            <glyph glyph-name="y" unicode="y"
                   d="M158 0l-50 358q-4 31 -7.5 44t-17 22t-41.5 9l8 39q21 0 63 -1t63 -1t63 1t63 1l-8 -39q-22 0 -31.5 -1t-17 -7t-6.5 -19l37 -314q4 7 27.5 47.5t45 77t45 79.5t38 73.5t14.5 40.5q0 15 -16.5 19t-47.5 4l8 39q17 0 50.5 -1t50.5 -1t50.5 1t50.5 1l-8 -39
q-4 -1 -14.5 -2.5t-12.5 -3t-9 -2.5t-9 -3.5t-6.5 -4.5t-8.5 -8t-7.5 -9.5t-10 -14.5t-11 -18t-14.5 -23l-311 -503q-58 -91 -131 -91q-23 0 -45 12t-31 32q-10 25 5 51.5t42 26.5q23 0 44 -24.5t34 -27.5q10 0 20.5 9t13.5 13.5t12 19.5l85 138h-61z"/>
            <glyph glyph-name="z" unicode="z" horiz-adv-x="500"
                   d="M508 470v-38l-337 -388h84q34 0 48.5 1t34 6t29.5 17t21.5 32.5t22.5 53.5h59q-20 -68 -32 -154h-448v29l341 395h-109q-36 0 -56 -10t-28 -24.5t-21 -50.5l-1.5 -4.5l-1.5 -4.5t-2 -5h-57q18 67 29 145h424z"/>
            <glyph glyph-name="braceleft" unicode="{" horiz-adv-x="333"
                   d="M197 166l-29 -176q-8 -48 4 -75t50 -38v-2q-33 -1 -51 0t-44 9t-39 26q-25 30 -10 118l28 167q9 51 -2.5 75.5t-54.5 35.5v2q34 5 61 32q11 13 18 26.5t9 22.5t6 30l31 189q13 81 57 111q8 5 17.5 9.5t15.5 7t17.5 4.5t15.5 3t17 1.5t15.5 0.5h18.5h17v-2
q-44 -14 -64 -39.5t-28 -76.5l-31 -189q-10 -59 -32 -89t-72 -41v-2q47 -10 59.5 -47.5t-0.5 -92.5z"/>
            <glyph glyph-name="bar" unicode="|" horiz-adv-x="606"
                   d="M258 -10v755h89v-755h-89z"/>
            <glyph glyph-name="braceright" unicode="}" horiz-adv-x="333"
                   d="M299 608l-31 -189q-10 -51 7 -79q18 -27 49 -32v-2q-46 -11 -65 -35t-28 -76l-28 -167q-15 -89 -48 -118q-19 -18 -48 -26t-47 -9t-51 0v2q42 11 62.5 37.5t29.5 75.5l29 176q10 62 32 96t73 44v2q-46 11 -58 41.5t-2 88.5l31 189q8 51 -3 76.5t-51 39.5v2h15.5h16.5
t14.5 -0.5t15 -1t13 -1.5t14 -3t12.5 -5t13 -6.5t12 -8.5q22 -18 25.5 -49.5t-4.5 -61.5z"/>
            <glyph glyph-name="asciitilde" unicode="~" horiz-adv-x="606"
                   d="M501 346l54 -62q-30 -52 -63 -83.5t-79 -31.5q-35 0 -113 34q-76 34 -100 34q-11 0 -20 -2.5t-17.5 -8.5t-14 -10.5t-12.5 -15t-10.5 -15.5t-11 -17.5t-9.5 -16.5l-54 63q30 55 64 88.5t82 33.5q39 0 117 -34q76 -34 98 -34q20 0 38.5 14.5t27 27t23.5 36.5z"/>
            <glyph glyph-name="uni00A0" unicode="&#xa0;" horiz-adv-x="278"
            />
            <glyph glyph-name="exclamdown" unicode="&#xa1;" horiz-adv-x="333"
                   d="M24 -105l114 345l42 32l28 -44l-38 -352q-4 -45 -21 -70t-58 -25q-35 0 -56 18t-21 53q0 10 10 43zM222 496q25 0 44 -17.5t19 -42.5q0 -39 -21.5 -70t-58.5 -31q-30 0 -48.5 17.5t-18.5 47.5q0 40 22.5 68t61.5 28z"/>
            <glyph glyph-name="cent" unicode="&#xa2;"
                   d="M209 116l190 307q-15 12 -39 15q-40 5 -70.5 -30.5t-47 -92t-25 -106.5t-10.5 -91zM183 1l-48 -77h-47l57 92q-77 41 -77 134t35 182q29 73 90 110.5t143 37.5q44 0 92 -10l44 70h46l-49 -79l48 -11q-8 -25 -37 -137h-60q0 6 2.5 23t1.5 23q0 16 -2 26h-2l-200 -324
q17 -29 54 -29q40 0 68 26.5t38 70.5q3 17 25 17h45q13 0 17 -8t0 -13q-30 -72 -79 -103.5t-128 -31.5q-47 0 -77 11z"/>
            <glyph glyph-name="sterling" unicode="&#xa3;"
                   d="M154 307h-100l15 46h88q6 57 14.5 98.5t27 84.5t45.5 70.5t71 44.5t102 17q68 0 110 -31t42 -96q0 -18 -2 -27.5t-9.5 -14t-13.5 -5t-23 -0.5h-10q-2 0 -10.5 -0.5t-13 0t-10.5 2t-9 6t-3 11.5q0 5 1.5 15t1.5 14q0 51 -11.5 68t-49.5 17q-12 0 -22 -4t-18 -12.5
t-14.5 -17t-12 -23t-8.5 -24t-6.5 -27t-5 -24.5t-4 -24t-2.5 -19l-9 -56l-6 -43h149l-10 -46h-147q-12 -67 -47.5 -123.5t-89.5 -90.5l2 -2q37 16 151 11q11 0 37 -2t40.5 -2.5t36 1.5t38.5 7l26 62h42q-32 -102 -37 -157q-34 -21 -85 -21q-66 0 -157 25q-86 27 -136 29
q-18 -23 -42 -39.5t-37 -16.5q-21 0 -32.5 13t-11.5 34q0 23 18 37t39.5 17.5t55.5 5.5q42 69 52 212z"/>
            <glyph glyph-name="currency" unicode="&#xa4;"
                   d="M25 145l50 50q-45 65 -45 140q0 84 46 143l-51 50l58 60l52 -51q62 47 147 47q76 0 139 -46l50 50l58 -60l-50 -49q47 -59 47 -143t-46 -141l51 -50l-58 -59l-51 50q-62 -48 -142 -48q-85 0 -146 48l-51 -50zM282 491q-66 0 -112.5 -45t-46.5 -111q0 -65 46.5 -109.5
t111.5 -44.5q63 0 107.5 46t44.5 109t-44.5 109t-106.5 46z"/>
            <glyph glyph-name="yen" unicode="&#xa5;"
                   d="M222 330l-64 181q-27 73 -42 89t-67 20l8 38q27 0 80 -0.5t80 -1.5q27 0 80.5 1t79.5 1l-9 -38q-12 0 -26 -0.5t-26 -1.5t-20 -9.5t-8 -23.5q0 -18 26 -98l54 -150l115 150q64 85 64 105q0 10 -5.5 16.5t-19 8.5t-21 2.5t-26.5 0.5l8 38q19 -1 55.5 -1.5t55.5 -0.5t55 1
t55 1l-9 -38q-12 -1 -18.5 -2t-14.5 -4t-10.5 -4t-10 -7.5t-10 -9.5t-13.5 -15.5t-18 -20.5l-181 -227h94l-13 -46h-117l-12 -57h114l-12 -46h-114l-14 -57q-7 -34 -8 -50t10.5 -25.5t26 -11t52.5 -1.5l-8 -38q-28 0 -81.5 0.5t-79.5 1.5q-26 -1 -79 -1.5t-80 -0.5l9 38
q58 3 71.5 15.5t24.5 72.5l14 57h-111l12 46h110l12 53l-1 4h-107l10 46h80z"/>
            <glyph glyph-name="brokenbar" unicode="&#xa6;" horiz-adv-x="606"
                   d="M258 -10v296h89v-296h-89zM347 745v-296h-89v296h89z"/>
            <glyph glyph-name="section" unicode="&#xa7;"
                   d="M59 29h52q26 0 23 -22q-9 -64 7 -95.5t78 -31.5q40 0 68.5 27.5t28.5 66.5q0 33 -25 65t-61 60.5t-72 58.5t-61 70t-25 84q0 98 109 158q-19 27 -19 70q0 82 57 123.5t141 41.5q77 0 124 -36t35 -110q-1 -8 -4.5 -13.5t-7 -8.5t-11 -4t-12.5 -1t-17 0.5t-19 0.5
q-23 0 -23 20q3 24 3 52q0 34 -22.5 48.5t-50.5 14.5q-44 0 -71 -25t-27 -69q0 -32 25.5 -63.5t62 -59.5t73 -57.5t62 -69.5t25.5 -83q0 -97 -114 -156q21 -27 21 -67q0 -86 -61 -131.5t-150 -45.5q-75 0 -121 34t-46 105q0 4 0.5 13t1 14t2.5 11t7.5 8.5t13.5 2.5zM152 363
q0 -34 45 -81.5t103 -96t73 -70.5q46 46 48 74q2 26 -38.5 70.5t-102.5 99.5t-82 78q-46 -25 -46 -74z"/>
            <glyph glyph-name="dieresis" unicode="&#xa8;" horiz-adv-x="333"
                   d="M436 619q0 -29 -21.5 -50.5t-49.5 -21.5q-29 0 -50.5 21.5t-21.5 50.5q0 28 21.5 49.5t50.5 21.5q28 0 49.5 -21.5t21.5 -49.5zM221 619q0 -29 -21.5 -50.5t-50.5 -21.5q-28 0 -49.5 21.5t-21.5 50.5q0 28 21.5 49.5t49.5 21.5q29 0 50.5 -21.5t21.5 -49.5z"/>
            <glyph glyph-name="copyright" unicode="&#xa9;" horiz-adv-x="747"
                   d="M403 -17q-144 0 -245.5 104.5t-101.5 252.5q0 147 102 251t245 104t245 -104t102 -251q0 -148 -101.5 -252.5t-245.5 -104.5zM403 50q117 0 199.5 84.5t82.5 205.5q0 119 -82.5 203.5t-199.5 84.5t-199.5 -84.5t-82.5 -203.5q0 -121 82.5 -205.5t199.5 -84.5zM549 502
v-103h-38q-8 23 -13.5 34.5t-16.5 27t-26 22.5t-35 7q-48 0 -76 -44q-24 -35 -24 -95q0 -66 29.5 -116.5t89.5 -50.5q22 0 47 13t37 32l8 12l31 -12q-18 -45 -63.5 -67.5t-97.5 -22.5q-82 0 -131 54.5t-49 138.5q0 87 53.5 143t137.5 56q30 0 69 -10q54 -12 68 -19z"/>
            <glyph glyph-name="ordfeminine" unicode="&#xaa;" horiz-adv-x="367"
                   d="M427 683l-52 -240q-4 -16 -4 -26q0 -4 1 -7t4 -5t5.5 -3t7.5 -1.5t8 -1t8.5 -0.5h7.5l-5 -24h-129l10 42l-2 2q-38 -51 -97 -51q-52 4 -78.5 35.5t-24.5 84.5q0 85 43 143.5t123 58.5q58 0 81 -44l6 37h87zM270 659q-30 2 -52.5 -40.5t-31 -86.5t-8.5 -73
q0 -19 10.5 -35.5t28.5 -17.5q28 -2 48.5 20t30 59t13.5 63.5t6 53.5q2 24 -9.5 40.5t-35.5 16.5zM55 325h345l-10 -50h-345z"/>
            <glyph glyph-name="guillemotleft" unicode="&#xab;"
                   d="M213 50l-138 184l7 44l200 170h41v-6l-155 -194l82 -195v-3h-37zM405 50l-138 184l7 44l201 170h40v-6l-155 -194l82 -195v-3h-37z"/>
            <glyph glyph-name="logicalnot" unicode="&#xac;" horiz-adv-x="606"
                   d="M469 308h-418v87h504v-282h-86v195z"/>
            <glyph glyph-name="uni00AD" unicode="&#xad;" horiz-adv-x="333"
                   d="M29 179l25 115h259l-27 -115h-257z"/>
            <glyph glyph-name="registered" unicode="&#xae;" horiz-adv-x="747"
                   d="M404 -17q-144 0 -245.5 104.5t-101.5 252.5q0 147 101.5 251t245.5 104q143 0 244.5 -104t101.5 -251q0 -148 -101.5 -252.5t-244.5 -104.5zM404 50q116 0 198.5 84.5t82.5 205.5q0 119 -82.5 203.5t-198.5 84.5q-117 0 -199.5 -84.5t-82.5 -203.5q0 -121 82.5 -205.5
t199.5 -84.5zM367 326v-114q0 -14 3.5 -20.5t9 -7.5t19.5 -1h7v-23h-163v23h12h11t7.5 1t7 4t3 8t1.5 12v285q0 4 -1 7.5t-3 5l-4 3t-6.5 1.5h-7.5h-9h-9v26h153q26 0 43.5 -1t39.5 -6.5t35.5 -15.5t23 -29t9.5 -45q0 -36 -27 -62.5t-63 -32.5v-2q23 -2 42.5 -27.5
t31.5 -54.5t27.5 -53t31.5 -24v-23h-58q-35 0 -47 12.5t-34 67.5l-15 35q-18 41 -28 47q-8 4 -36 4h-7zM367 355h21q79 0 79 79q0 34 -17.5 54t-50.5 20h-32v-153z"/>
            <glyph glyph-name="macron" unicode="&#xaf;" horiz-adv-x="333"
                   d="M76 572l19 76h336l-19 -76h-336z"/>
            <glyph glyph-name="degree" unicode="&#xb0;" horiz-adv-x="400"
                   d="M437 485q0 -62 -44 -106t-106 -44t-106 44t-44 106q-1 61 43.5 105.5t106.5 44.5q61 0 105.5 -44.5t44.5 -105.5zM375 485q0 36 -26 62t-63 26q-36 0 -62 -26t-25 -62q0 -37 25.5 -62.5t62.5 -25.5q36 0 62 25.5t26 62.5z"/>
            <glyph glyph-name="plusminus" unicode="&#xb1;" horiz-adv-x="606"
                   d="M259 364v137h88v-137h209v-88h-209v-135h-88v135h-209v88h209zM51 0v87h504v-87h-504z"/>
            <glyph glyph-name="twosuperior" unicode="&#xb2;" horiz-adv-x="333"
                   d="M127 325v-1h151q28 0 36.5 7t18.5 34h28q-22 -71 -29 -112q-24 0 -71 0.5t-71 0.5q-23 0 -70 -0.5t-71 -0.5l19 59l6 20q43 30 67 49t55 49t45.5 62t14.5 68q0 42 -36 42q-14 0 -24 -5.5t-15.5 -11t-9.5 -19.5t-4.5 -20t-2.5 -22q-1 -8 -20 -8h-33q-14 0 -18 4t-3 17
q1 46 39.5 72t101.5 26q133 0 133 -87q0 -28 -16.5 -56t-48.5 -54.5t-54 -41.5t-59 -38q-9 -5 -13 -8q-25 -16 -46 -25z"/>
            <glyph glyph-name="threesuperior" unicode="&#xb3;" horiz-adv-x="333"
                   d="M164 440l7 29l48 -3q63 0 63 96q0 15 -9 27.5t-31 12.5q-8 0 -13.5 -0.5t-9.5 -2.5t-6 -2.5t-4.5 -6t-3.5 -7t-3.5 -10t-3.5 -11.5q-4 -19 -10 -23.5t-25 -4.5h-28q-19 0 -22 6q-5 20 9 42t35 34q32 19 94 19q33 0 61 -6.5t50.5 -26t22.5 -50.5q0 -40 -30.5 -65.5
t-74.5 -30.5v-2q79 -15 79 -82q0 -66 -49 -95t-124 -29q-46 0 -82 20t-36 60q0 35 23 35h35q9 0 15 -2t8 -8.5t3 -8.5t0 -13v-11q0 -21 10 -29.5t34 -8.5q31 0 44.5 31t13.5 69q0 44 -36 52q-34 7 -54 6z"/>
            <glyph glyph-name="acute" unicode="&#xb4;" horiz-adv-x="333"
                   d="M167 534l121 134q45 50 74 50q21 0 37 -15.5t16 -36.5q0 -35 -64 -63l-129 -69h-55z"/>
            <glyph glyph-name="mu" unicode="&#xb5;" horiz-adv-x="611"
                   d="M345 -2l14 68q-87 -87 -205 -74l-7 -108q-9 -95 -71 -95q-35 0 -53.5 19t-11.5 52l108 510q4 16 3.5 26.5t-2.5 16t-9.5 9t-13.5 4.5t-19.5 2.5l-22.5 2.5l8 39h217l-68 -306q-13 -38 -4.5 -68.5t53.5 -30.5q43 0 72.5 23t38.5 64l48 214q4 21 4.5 32t-4.5 17t-9.5 7.5
t-21 3.5t-28.5 5l6 39h208l-73 -346q-14 -57 -8 -70.5t58 -18.5l-8 -37q-16 0 -49 1t-50 1t-50 -1t-50 -1z"/>
            <glyph glyph-name="paragraph" unicode="&#xb6;"
                   d="M527 644l-169 -749h64l-12 -50h-374l12 50h79l92 409l-51 -5q-86 0 -125 45q-24 25 -31 70t4 85q11 54 47 99.5t86 67.5q28 12 66 17.5t55.5 6t64.5 0.5h269l-11 -46h-66zM446 644h-66l-169 -749h66zM210 567l-26 -115l-4.5 -25.5t-3.5 -24t0.5 -24t7.5 -18t16 -14
t27 -4.5l69 302q-29 2 -53 -21t-33 -56z"/>
            <glyph glyph-name="periodcentered" unicode="&#xb7;" horiz-adv-x="278"
                   d="M149 234q-29 0 -49.5 21t-20.5 49q0 29 20.5 50t49.5 21t50 -21t21 -50t-21 -49.5t-50 -20.5z"/>
            <glyph glyph-name="cedilla" unicode="&#xb8;" horiz-adv-x="333"
                   d="M-19 -190l20 33q45 -25 87 -25q23 0 40 12t17 29q0 35 -51 39q-18 0 -27 -5l-15 12l58 95h42l-43 -69q18 5 35 5q38 0 68 -16.5t30 -52.5q0 -46 -43 -67t-94 -21q-65 0 -124 31z"/>
            <glyph glyph-name="onesuperior" unicode="&#xb9;" horiz-adv-x="333"
                   d="M172 354l50 229q-61 -44 -110 -58q-12 -5 -16 7l-3 15q-5 14 9 15q36 10 77 29q44 21 75 44h82l-69 -291q-4 -20 -4 -34q0 -10 5 -16t15.5 -8t19 -3t23 -1h20.5l-5 -23q-95 0 -137 1q-44 -1 -130 -1l5 23q56 0 67.5 8t22.5 53q2 7 3 11z"/>
            <glyph glyph-name="ordmasculine" unicode="&#xba;" horiz-adv-x="334"
                   d="M245 690q58 0 99 -27t41 -82q-4 -211 -184 -211q-61 0 -95.5 29.5t-34.5 89.5q0 92 43 146.5t131 54.5zM249 665q-24 0 -42.5 -26.5t-27.5 -64.5t-13.5 -70t-4.5 -53q0 -56 40 -56q26 0 45.5 27t29.5 66.5t14.5 73t4.5 55.5q0 21 -12.5 34.5t-33.5 13.5zM42 325h298
l-10 -50h-298z"/>
            <glyph glyph-name="guillemotright" unicode="&#xbb;"
                   d="M156 446l138 -184l-7 -44l-200 -170h-41v5l155 195l-82 194v4h37zM346 446l138 -184l-7 -44l-200 -170h-41v5l155 195l-82 194v4h37z"/>
            <glyph glyph-name="onequarter" unicode="&#xbc;" horiz-adv-x="834"
                   d="M613 95h-170l10 50q86 104 219 230h102l-52 -224h67l-17 -56h-61l-12 -43q-5 -19 10 -23.5t58 -4.5l-5 -25h-251l5 24q13 1 29.5 1.5t21.5 -0.5t14 1.5t10 3.5t5.5 8t4.5 12t4.5 19.5t7.5 26.5zM506 151h120l40 169q-86 -83 -160 -169zM254 0h-54l439 690h55zM152 409
l50 229q-61 -44 -110 -58q-12 -5 -16 7l-3 15q-5 14 9 15q36 10 77 29q44 21 75 44h82l-69 -291q-4 -20 -4 -34q0 -10 5 -16t15.5 -8t19 -3t23 -1h20.5l-5 -23q-95 0 -137 1q-44 -1 -130 -1l5 23q56 0 67.5 8t22.5 53q2 7 3 11z"/>
            <glyph glyph-name="onehalf" unicode="&#xbd;" horiz-adv-x="834"
                   d="M254 0h-54l439 690h55zM152 409l50 229q-57 -41 -110 -58q-12 -4 -16 7l-3 15q-5 14 9 15q36 10 77 29q44 21 75 44h82l-69 -291q-4 -15 -4 -34q0 -10 5 -16t15.5 -8t19 -3t23 -1h20.5l-5 -23q-27 0 -72 0.5t-65 0.5q-22 0 -65.5 -0.5t-64.5 -0.5l5 23q59 0 70.5 9
t22.5 63zM568 71v-1h151q28 0 36.5 7t18.5 34h28q-22 -71 -29 -112q-23 0 -71 0.5t-71 0.5t-70 -0.5t-71 -0.5l19 59l6 20q43 30 67 49t55 49t45.5 62t14.5 68q0 42 -36 42q-14 0 -24 -5.5t-15.5 -11t-9.5 -19.5t-4.5 -20t-2.5 -22q-1 -8 -20 -8h-33q-14 0 -18 4t-3 17
q1 46 39.5 72t101.5 26q133 0 133 -87q0 -28 -16.5 -56t-48.5 -54.5t-54 -41.5t-59 -38q-9 -5 -13 -8q-25 -16 -46 -25z"/>
            <glyph glyph-name="threequarters" unicode="&#xbe;" horiz-adv-x="834"
                   d="M613 95h-170l10 50q86 104 219 230h102l-52 -224h67l-17 -56h-61l-12 -43q-5 -19 10 -23.5t58 -4.5l-5 -25h-251l5 24q13 1 29.5 1.5t21.5 -0.5t14 1.5t10 3.5t5.5 8t4.5 12t4.5 19.5t7.5 26.5zM506 151h120l40 169q-86 -83 -160 -169zM247 0h-54l439 690h55zM154 495
l7 29l48 -3q63 0 63 96q0 15 -9 27.5t-31 12.5q-8 0 -13.5 -0.5t-9.5 -2.5t-6 -2.5t-4.5 -6t-3.5 -7t-3.5 -10t-3.5 -11.5q-4 -19 -10 -23.5t-25 -4.5h-28q-19 0 -22 6q-5 20 9 42t35 34q32 19 94 19q33 0 61 -6.5t50.5 -26t22.5 -50.5q0 -40 -30.5 -65.5t-74.5 -30.5v-2
q79 -15 79 -82q0 -66 -49 -95t-124 -29q-46 0 -82 20t-36 60q0 35 23 35h35q9 0 15 -2t8 -8.5t3 -8.5t0 -13v-11q0 -21 10 -29.5t34 -8.5q31 0 44.5 31t13.5 69q0 44 -36 52q-34 7 -54 6z"/>
            <glyph glyph-name="questiondown" unicode="&#xbf;" horiz-adv-x="444"
                   d="M204 81l53 159l42 34l27 -41l-20 -191q-21 11 -48 11q-51 0 -79 -48t-28 -103q0 -83 62 -83t80 100q5 24 18.5 27t37.5 -2l43 -4q4 -1 7 -3t5 -6.5t2.5 -6t1.5 -8.5l1 -6q10 -43 -44 -86.5t-150 -43.5q-74 0 -135.5 35.5t-61.5 104.5q0 79 53 122t133 39zM331 494
q33 0 52 -18.5t19 -51.5q0 -36 -23 -65.5t-58 -29.5q-32 0 -52 18t-20 49q0 40 21.5 69t60.5 29z"/>
            <glyph glyph-name="Agrave" unicode="&#xc0;" horiz-adv-x="778"
                   d="M473 289h-216l-62 -109q-14 -24 -20 -35t-14.5 -29t-10 -26t-2.5 -19.5t5 -16t15.5 -9.5t26 -6.5t39.5 -0.5l-9 -40q-20 0 -61.5 1t-62.5 1t-62.5 -1t-62.5 -1l9 40q12 0 20.5 0.5t17 4t14 5.5t13 9.5t11.5 12t12.5 17t13 20t15.5 26t18 30.5l316 527h120l87 -559
q5 -27 9 -40.5t13.5 -28.5t27 -20.5t44.5 -3.5l-9 -40q-27 0 -80.5 1t-80.5 1t-80.5 -1t-80.5 -1l9 40q3 0 13 0.5t14 1t13 1t12.5 2t10 3.5t9.5 5.5t6 7.5t4 10.5t0 13.5q-1 4 -2 27.5t-4 43.5zM282 335h186l-37 253zM500 887l101 -138h-50l-123 78q-15 10 -23 15.5t-16 18
t-8 25.5q0 19 15.5 33t34.5 14q36 0 69 -46z"/>
            <glyph glyph-name="Aacute" unicode="&#xc1;" horiz-adv-x="778"
                   d="M473 289h-216l-62 -109q-14 -24 -20 -35t-14.5 -29t-10 -26t-2.5 -19.5t5 -16t15.5 -9.5t26 -6.5t39.5 -0.5l-9 -40q-20 0 -61.5 1t-62.5 1t-62.5 -1t-62.5 -1l9 40q12 0 20.5 0.5t17 4t14 5.5t13 9.5t11.5 12t12.5 17t13 20t15.5 26t18 30.5l316 527h120l87 -559
q5 -27 9 -40.5t13.5 -28.5t27 -20.5t44.5 -3.5l-9 -40q-27 0 -80.5 1t-80.5 1t-80.5 -1t-80.5 -1l9 40q3 0 13 0.5t14 1t13 1t12.5 2t10 3.5t9.5 5.5t6 7.5t4 10.5t0 13.5q-1 4 -2 27.5t-4 43.5zM282 335h186l-37 253zM430 749l121 134q45 50 74 50q21 0 37 -15.5t16 -36.5
q0 -35 -64 -63l-129 -69h-55z"/>
            <glyph glyph-name="Acircumflex" unicode="&#xc2;" horiz-adv-x="778"
                   d="M473 289h-216l-62 -109q-14 -24 -20 -35t-14.5 -29t-10 -26t-2.5 -19.5t5 -16t15.5 -9.5t26 -6.5t39.5 -0.5l-9 -40q-20 0 -61.5 1t-62.5 1t-62.5 -1t-62.5 -1l9 40q12 0 20.5 0.5t17 4t14 5.5t13 9.5t11.5 12t12.5 17t13 20t15.5 26t18 30.5l316 527h120l87 -559
q5 -27 9 -40.5t13.5 -28.5t27 -20.5t44.5 -3.5l-9 -40q-27 0 -80.5 1t-80.5 1t-80.5 -1t-80.5 -1l9 40q3 0 13 0.5t14 1t13 1t12.5 2t10 3.5t9.5 5.5t6 7.5t4 10.5t0 13.5q-1 4 -2 27.5t-4 43.5zM282 335h186l-37 253zM578 923l84 -174h-57l-92 90l-128 -90h-65l159 174h99z
"/>
            <glyph glyph-name="Atilde" unicode="&#xc3;" horiz-adv-x="778"
                   d="M473 289h-216l-62 -109q-14 -24 -20 -35t-14.5 -29t-10 -26t-2.5 -19.5t5 -16t15.5 -9.5t26 -6.5t39.5 -0.5l-9 -40q-20 0 -61.5 1t-62.5 1t-62.5 -1t-62.5 -1l9 40q12 0 20.5 0.5t17 4t14 5.5t13 9.5t11.5 12t12.5 17t13 20t15.5 26t18 30.5l316 527h120l87 -559
q5 -27 9 -40.5t13.5 -28.5t27 -20.5t44.5 -3.5l-9 -40q-27 0 -80.5 1t-80.5 1t-80.5 -1t-80.5 -1l9 40q3 0 13 0.5t14 1t13 1t12.5 2t10 3.5t9.5 5.5t6 7.5t4 10.5t0 13.5q-1 4 -2 27.5t-4 43.5zM282 335h186l-37 253zM646 905h45q-6 -52 -40 -88.5t-85 -36.5q-30 0 -82 21
q-54 20 -71 20q-20 0 -29.5 -10t-17.5 -31h-45q6 48 40 86.5t80 38.5q32 0 84 -20q52 -21 67 -21q38 0 54 41z"/>
            <glyph glyph-name="Adieresis" unicode="&#xc4;" horiz-adv-x="778"
                   d="M473 289h-216l-62 -109q-14 -24 -20 -35t-14.5 -29t-10 -26t-2.5 -19.5t5 -16t15.5 -9.5t26 -6.5t39.5 -0.5l-9 -40q-20 0 -61.5 1t-62.5 1t-62.5 -1t-62.5 -1l9 40q12 0 20.5 0.5t17 4t14 5.5t13 9.5t11.5 12t12.5 17t13 20t15.5 26t18 30.5l316 527h120l87 -559
q5 -27 9 -40.5t13.5 -28.5t27 -20.5t44.5 -3.5l-9 -40q-27 0 -80.5 1t-80.5 1t-80.5 -1t-80.5 -1l9 40q3 0 13 0.5t14 1t13 1t12.5 2t10 3.5t9.5 5.5t6 7.5t4 10.5t0 13.5q-1 4 -2 27.5t-4 43.5zM282 335h186l-37 253zM699 834q0 -29 -21.5 -50.5t-49.5 -21.5
q-29 0 -50.5 21.5t-21.5 50.5q0 28 21.5 49.5t50.5 21.5q28 0 49.5 -21.5t21.5 -49.5zM484 834q0 -29 -21.5 -50.5t-50.5 -21.5q-28 0 -49.5 21.5t-21.5 50.5q0 28 21.5 49.5t49.5 21.5q29 0 50.5 -21.5t21.5 -49.5z"/>
            <glyph glyph-name="Aring" unicode="&#xc5;" horiz-adv-x="778"
                   d="M473 289h-216l-62 -109q-14 -24 -20 -35t-14.5 -29t-10 -26t-2.5 -19.5t5 -16t15.5 -9.5t26 -6.5t39.5 -0.5l-9 -40q-20 0 -61.5 1t-62.5 1t-62.5 -1t-62.5 -1l9 40q12 0 20.5 0.5t17 4t14 5.5t13 9.5t11.5 12t12.5 17t13 20t15.5 26t18 30.5l316 527h120l87 -559
q5 -27 9 -40.5t13.5 -28.5t27 -20.5t44.5 -3.5l-9 -40q-27 0 -80.5 1t-80.5 1t-80.5 -1t-80.5 -1l9 40q3 0 13 0.5t14 1t13 1t12.5 2t10 3.5t9.5 5.5t6 7.5t4 10.5t0 13.5q-1 4 -2 27.5t-4 43.5zM282 335h186l-37 253zM621 835q0 -43 -31 -73.5t-73 -30.5q-43 0 -74 30.5
t-31 73.5t31 73.5t74 30.5q42 0 73 -30.5t31 -73.5zM457 835q0 -24 18 -41.5t42 -17.5t41.5 17.5t17.5 41.5t-17.5 41.5t-41.5 17.5t-42 -17.5t-18 -41.5z"/>
            <glyph glyph-name="AE" unicode="&#xc6;" horiz-adv-x="944"
                   d="M488 646l-193 -305h164l63 305h-34zM216 40l-8 -42q-17 0 -53 1t-53 1q-18 0 -53 -1t-53 -1l6 42q15 -1 29 5.5t26.5 20t19.5 23t17.5 27.5t11.5 20q3 5 25.5 38.5t47.5 72t58 89.5t62.5 97t55 88t40.5 69.5t15 34.5q0 6 -3 10.5t-9 7.5t-12 5t-16.5 3t-17.5 1.5
t-18.5 1.5t-17.5 1l10 37q178 -2 266 -2q122 0 366 2q-6 -31 -18 -87.5t-18 -87.5h-65q5 50 5 59q0 25 -8.5 40t-28 21t-34.5 7.5t-45 1.5h-78l-56 -258h54q38 2 58 21.5t24 63.5h61q-40 -180 -49 -228h-57q8 38 8 46q0 9 -1 16t-2.5 12.5t-5 10t-5.5 7t-7 4.5t-7 3
t-7.5 1.5t-7 0.5h-8.5h-6h-51l-61 -299h89q85 2 114.5 27t55.5 120h72q-32 -117 -48 -196q-60 0 -179 1t-179 1q-27 0 -79 -1t-79 -1l8 41q56 3 68.5 12.5t21.5 50.5l3 15l40 182h-180q-7 -13 -41 -68t-60 -103t-26 -64q0 -10 6.5 -15.5t16.5 -7t23 -2t27 0.5z"/>
            <glyph glyph-name="Ccedilla" unicode="&#xc7;" horiz-adv-x="722"
                   d="M591 221h78l-9 -34q-23 -85 -34 -155q-78 -40 -220 -42h-35l-37 -59q18 5 35 5q38 0 68 -16.5t30 -52.5q0 -46 -43 -67t-94 -21q-65 0 -124 31l20 33q45 -25 87 -25q23 0 40 12t17 29q0 37 -51 39q-16 2 -27 -5l-15 12l54 88q-117 13 -182.5 79.5t-65.5 187.5
q0 166 71 279q56 90 138 128t197 38q53 0 137 -13t115 -33q-16 -60 -28 -158l-4 -18h-70q0 12 2 35t2 34q0 55 -39 82t-96 27q-62 0 -110.5 -29.5t-77.5 -74.5t-48 -105t-26 -115.5t-7 -111.5q0 -89 41.5 -140t127.5 -51q83 0 122 47.5t61 139.5z"/>
            <glyph glyph-name="Egrave" unicode="&#xc8;" horiz-adv-x="667"
                   d="M-16 -2l9 40q57 3 74.5 17.5t28.5 74.5l93 430q5 23 6.5 38t-2 25.5t-7.5 16t-18 8.5t-24.5 3.5t-35.5 0.5l9 40q26 0 78.5 -1t78.5 -1q69 0 206.5 1t206.5 1q-6 -21 -19.5 -95t-17.5 -84h-66q0 11 3 49t-1 43q-2 10 -7.5 17.5t-15.5 11.5t-18 7t-22.5 4t-21.5 1.5
t-22.5 0t-17.5 -0.5h-107l-55 -259h57q56 0 73.5 16t28.5 74h60q-32 -152 -45 -235h-61q7 34 7 57q-3 46 -55 46h-75l-60 -296h105q103 0 135 26t55 123h74q-36 -147 -44 -200q-68 0 -206 1t-206 1q-26 0 -79.5 -0.5t-78.5 -1.5zM424 887l101 -138h-50l-123 78
q-15 10 -23 15.5t-16 18t-8 25.5q0 19 15.5 33t34.5 14q36 0 69 -46z"/>
            <glyph glyph-name="Eacute" unicode="&#xc9;" horiz-adv-x="667"
                   d="M-16 -2l9 40q57 3 74.5 17.5t28.5 74.5l93 430q5 23 6.5 38t-2 25.5t-7.5 16t-18 8.5t-24.5 3.5t-35.5 0.5l9 40q26 0 78.5 -1t78.5 -1q69 0 206.5 1t206.5 1q-6 -21 -19.5 -95t-17.5 -84h-66q0 11 3 49t-1 43q-2 10 -7.5 17.5t-15.5 11.5t-18 7t-22.5 4t-21.5 1.5
t-22.5 0t-17.5 -0.5h-107l-55 -259h57q56 0 73.5 16t28.5 74h60q-32 -152 -45 -235h-61q7 34 7 57q-3 46 -55 46h-75l-60 -296h105q103 0 135 26t55 123h74q-36 -147 -44 -200q-68 0 -206 1t-206 1q-26 0 -79.5 -0.5t-78.5 -1.5zM334 749l121 134q45 50 74 50q21 0 37 -15.5
t16 -36.5q0 -35 -64 -63l-129 -69h-55z"/>
            <glyph glyph-name="Ecircumflex" unicode="&#xca;" horiz-adv-x="667"
                   d="M-16 -2l9 40q57 3 74.5 17.5t28.5 74.5l93 430q5 23 6.5 38t-2 25.5t-7.5 16t-18 8.5t-24.5 3.5t-35.5 0.5l9 40q26 0 78.5 -1t78.5 -1q69 0 206.5 1t206.5 1q-6 -21 -19.5 -95t-17.5 -84h-66q0 11 3 49t-1 43q-2 10 -7.5 17.5t-15.5 11.5t-18 7t-22.5 4t-21.5 1.5
t-22.5 0t-17.5 -0.5h-107l-55 -259h57q56 0 73.5 16t28.5 74h60q-32 -152 -45 -235h-61q7 34 7 57q-3 46 -55 46h-75l-60 -296h105q103 0 135 26t55 123h74q-36 -147 -44 -200q-68 0 -206 1t-206 1q-26 0 -79.5 -0.5t-78.5 -1.5zM492 923l84 -174h-57l-92 90l-128 -90h-65
l159 174h99z"/>
            <glyph glyph-name="Edieresis" unicode="&#xcb;" horiz-adv-x="667"
                   d="M-16 -2l9 40q57 3 74.5 17.5t28.5 74.5l93 430q5 23 6.5 38t-2 25.5t-7.5 16t-18 8.5t-24.5 3.5t-35.5 0.5l9 40q26 0 78.5 -1t78.5 -1q69 0 206.5 1t206.5 1q-6 -21 -19.5 -95t-17.5 -84h-66q0 11 3 49t-1 43q-2 10 -7.5 17.5t-15.5 11.5t-18 7t-22.5 4t-21.5 1.5
t-22.5 0t-17.5 -0.5h-107l-55 -259h57q56 0 73.5 16t28.5 74h60q-32 -152 -45 -235h-61q7 34 7 57q-3 46 -55 46h-75l-60 -296h105q103 0 135 26t55 123h74q-36 -147 -44 -200q-68 0 -206 1t-206 1q-26 0 -79.5 -0.5t-78.5 -1.5zM633 834q0 -29 -21.5 -50.5t-49.5 -21.5
q-29 0 -50.5 21.5t-21.5 50.5q0 28 21.5 49.5t50.5 21.5q28 0 49.5 -21.5t21.5 -49.5zM418 834q0 -29 -21.5 -50.5t-50.5 -21.5q-28 0 -49.5 21.5t-21.5 50.5q0 28 21.5 49.5t49.5 21.5q29 0 50.5 -21.5t21.5 -49.5z"/>
            <glyph glyph-name="Igrave" unicode="&#xcc;" horiz-adv-x="389"
                   d="M344 560l-96 -430q-7 -36 -8.5 -52.5t9.5 -26.5t25.5 -11.5t51.5 -1.5l-9 -40q-27 0 -81 1t-81 1t-81 -1t-81 -1l9 40q57 3 71 16t25 76l96 430q7 36 8.5 52.5t-9 26.5t-24 11.5t-48.5 1.5l9 40q26 0 78.5 -1t78.5 -1q27 0 81 1t81 1l-9 -40q-57 -3 -71 -16t-25 -76z
M285 887l101 -138h-50l-123 78q-15 10 -23 15.5t-16 18t-8 25.5q0 19 15.5 33t34.5 14q36 0 69 -46z"/>
            <glyph glyph-name="Iacute" unicode="&#xcd;" horiz-adv-x="389"
                   d="M344 560l-96 -430q-7 -36 -8.5 -52.5t9.5 -26.5t25.5 -11.5t51.5 -1.5l-9 -40q-27 0 -81 1t-81 1t-81 -1t-81 -1l9 40q57 3 71 16t25 76l96 430q7 36 8.5 52.5t-9 26.5t-24 11.5t-48.5 1.5l9 40q26 0 78.5 -1t78.5 -1q27 0 81 1t81 1l-9 -40q-57 -3 -71 -16t-25 -76z
M215 749l121 134q45 50 74 50q21 0 37 -15.5t16 -36.5q0 -35 -64 -63l-129 -69h-55z"/>
            <glyph glyph-name="Icircumflex" unicode="&#xce;" horiz-adv-x="389"
                   d="M344 560l-96 -430q-7 -36 -8.5 -52.5t9.5 -26.5t25.5 -11.5t51.5 -1.5l-9 -40q-27 0 -81 1t-81 1t-81 -1t-81 -1l9 40q57 3 71 16t25 76l96 430q7 36 8.5 52.5t-9 26.5t-24 11.5t-48.5 1.5l9 40q26 0 78.5 -1t78.5 -1q27 0 81 1t81 1l-9 -40q-57 -3 -71 -16t-25 -76z
M383 923l84 -174h-57l-92 90l-128 -90h-65l159 174h99z"/>
            <glyph glyph-name="Idieresis" unicode="&#xcf;" horiz-adv-x="389"
                   d="M344 560l-96 -430q-7 -36 -8.5 -52.5t9.5 -26.5t25.5 -11.5t51.5 -1.5l-9 -40q-27 0 -81 1t-81 1t-81 -1t-81 -1l9 40q57 3 71 16t25 76l96 430q7 36 8.5 52.5t-9 26.5t-24 11.5t-48.5 1.5l9 40q26 0 78.5 -1t78.5 -1q27 0 81 1t81 1l-9 -40q-57 -3 -71 -16t-25 -76z
M494 834q0 -29 -21.5 -50.5t-49.5 -21.5q-29 0 -50.5 21.5t-21.5 50.5q0 28 21.5 49.5t50.5 21.5q28 0 49.5 -21.5t21.5 -49.5zM279 834q0 -29 -21.5 -50.5t-50.5 -21.5q-28 0 -49.5 21.5t-21.5 50.5q0 28 21.5 49.5t49.5 21.5q29 0 50.5 -21.5t21.5 -49.5z"/>
            <glyph glyph-name="Eth" unicode="&#xd0;" horiz-adv-x="778"
                   d="M299 383l128 1l-10 -46h-128q-50 -235 -61 -293h70q80 0 139 37t91 100.5t46.5 134.5t14.5 152q0 97 -43 139t-137 40h-51q-7 -31 -27.5 -123.5t-31.5 -141.5zM-11 -2l9 40q58 3 73 16.5t27 75.5l45 208h-83l10 46h83l38 176q6 23 8.5 38t0 25.5t-6 16t-17 8.5t-24.5 3.5
t-35 0.5l9 40q26 0 78.5 -1t78.5 -1q30 0 90 1t90 1q146 2 213.5 -56t67.5 -202q0 -103 -35.5 -199t-105.5 -159q-15 -14 -33.5 -25.5t-32.5 -19t-38.5 -13.5t-35 -9t-41 -5.5t-37 -3t-42 -1.5t-39.5 -1q-26 0 -77 1t-76 1q-27 0 -81 -1t-81 -1z"/>
            <glyph glyph-name="Ntilde" unicode="&#xd1;" horiz-adv-x="778"
                   d="M84 108l25 99l94 411q-7 17 -27.5 25t-32.5 8.5t-39 0.5l9 40q19 0 57 -1t57 -1t56.5 1t56.5 1l257 -554h3l80 391q9 57 9 68q0 14 -0.5 23t-5 15t-6.5 9.5t-12 5t-15 1.5t-22 0.5t-27 0.5l9 40q20 0 61 -1t61 -1t60.5 1t60.5 1l-9 -40q-13 -3 -28 -3.5t-21.5 -2
t-14.5 -6.5t-14 -21.5t-14 -43t-20 -74.5l-115 -501h-119l-259 553h-3l-70 -329q-3 -18 -11 -67.5t-12 -68.5q-5 -24 13 -35.5t75 -14.5l-4 -40q-19 0 -58 1t-59 1t-59 -1t-59 -1l7 40q48 4 60.5 14.5t24.5 55.5zM666 905h45q-6 -52 -40 -88.5t-85 -36.5q-30 0 -82 21
q-54 20 -71 20q-20 0 -29.5 -10t-17.5 -31h-45q6 48 40 86.5t80 38.5q32 0 84 -20q52 -21 67 -21q38 0 54 41z"/>
            <glyph glyph-name="Ograve" unicode="&#xd2;" horiz-adv-x="833"
                   d="M497 666q-139 0 -199 -163q-58 -143 -58 -289q0 -89 37 -137t122 -48q64 0 114.5 50.5t78 125t41.5 146.5t14 128q0 87 -33.5 137t-116.5 50zM88 263q0 99 35 198q88 244 360 244q142 0 229.5 -67.5t87.5 -203.5q0 -96 -36 -193.5t-102 -156.5q-60 -56 -125.5 -75
t-160.5 -19q-130 0 -209 72.5t-79 200.5zM507 887l101 -138h-50l-123 78q-15 10 -23 15.5t-16 18t-8 25.5q0 19 15.5 33t34.5 14q36 0 69 -46z"/>
            <glyph glyph-name="Oacute" unicode="&#xd3;" horiz-adv-x="833"
                   d="M497 666q-139 0 -199 -163q-58 -143 -58 -289q0 -89 37 -137t122 -48q64 0 114.5 50.5t78 125t41.5 146.5t14 128q0 87 -33.5 137t-116.5 50zM88 263q0 99 35 198q88 244 360 244q142 0 229.5 -67.5t87.5 -203.5q0 -96 -36 -193.5t-102 -156.5q-60 -56 -125.5 -75
t-160.5 -19q-130 0 -209 72.5t-79 200.5zM437 749l121 134q45 50 74 50q21 0 37 -15.5t16 -36.5q0 -35 -64 -63l-129 -69h-55z"/>
            <glyph glyph-name="Ocircumflex" unicode="&#xd4;" horiz-adv-x="833"
                   d="M497 666q-139 0 -199 -163q-58 -143 -58 -289q0 -89 37 -137t122 -48q64 0 114.5 50.5t78 125t41.5 146.5t14 128q0 87 -33.5 137t-116.5 50zM88 263q0 99 35 198q88 244 360 244q142 0 229.5 -67.5t87.5 -203.5q0 -96 -36 -193.5t-102 -156.5q-60 -56 -125.5 -75
t-160.5 -19q-130 0 -209 72.5t-79 200.5zM595 923l84 -174h-57l-92 90l-128 -90h-65l159 174h99z"/>
            <glyph glyph-name="Otilde" unicode="&#xd5;" horiz-adv-x="833"
                   d="M497 666q-139 0 -199 -163q-58 -143 -58 -289q0 -89 37 -137t122 -48q64 0 114.5 50.5t78 125t41.5 146.5t14 128q0 87 -33.5 137t-116.5 50zM88 263q0 99 35 198q88 244 360 244q142 0 229.5 -67.5t87.5 -203.5q0 -96 -36 -193.5t-102 -156.5q-60 -56 -125.5 -75
t-160.5 -19q-130 0 -209 72.5t-79 200.5zM673 905h45q-6 -52 -40 -88.5t-85 -36.5q-30 0 -82 21q-54 20 -71 20q-20 0 -29.5 -10t-17.5 -31h-45q6 48 40 86.5t80 38.5q32 0 84 -20q52 -21 67 -21q38 0 54 41z"/>
            <glyph glyph-name="Odieresis" unicode="&#xd6;" horiz-adv-x="833"
                   d="M497 666q-139 0 -199 -163q-58 -143 -58 -289q0 -89 37 -137t122 -48q64 0 114.5 50.5t78 125t41.5 146.5t14 128q0 87 -33.5 137t-116.5 50zM88 263q0 99 35 198q88 244 360 244q142 0 229.5 -67.5t87.5 -203.5q0 -96 -36 -193.5t-102 -156.5q-60 -56 -125.5 -75
t-160.5 -19q-130 0 -209 72.5t-79 200.5zM716 834q0 -29 -21.5 -50.5t-49.5 -21.5q-29 0 -50.5 21.5t-21.5 50.5q0 28 21.5 49.5t50.5 21.5q28 0 49.5 -21.5t21.5 -49.5zM501 834q0 -29 -21.5 -50.5t-50.5 -21.5q-28 0 -49.5 21.5t-21.5 50.5q0 28 21.5 49.5t49.5 21.5
q29 0 50.5 -21.5t21.5 -49.5z"/>
            <glyph glyph-name="multiply" unicode="&#xd7;" horiz-adv-x="606"
                   d="M241 248l-169 169l62 62l169 -169l169 169l62 -62l-169 -169l169 -169l-62 -62l-169 169l-169 -169l-62 62z"/>
            <glyph glyph-name="Oslash" unicode="&#xd8;" horiz-adv-x="833"
                   d="M242 176l393 397q-12 45 -50.5 69t-87.5 24q-139 0 -199 -163q-29 -72 -47.5 -168.5t-8.5 -158.5zM646 514l-392 -393q28 -92 145 -92q66 0 118.5 55.5t80 135.5t40.5 159t8 135zM704 643l80 81l37 -34l-80 -80q59 -64 59 -176q0 -96 -36 -193.5t-102 -156.5
q-60 -56 -125.5 -75t-160.5 -19q-113 0 -192 60l-84 -85l-34 34l82 83q-60 71 -60 181q0 94 25 174t73 140t124 94t173 34q138 0 221 -62z"/>
            <glyph glyph-name="Ugrave" unicode="&#xd9;" horiz-adv-x="778"
                   d="M122 265l60 295q7 36 8.5 52.5t-9 26.5t-24 11.5t-48.5 1.5l9 40q26 0 78.5 -1t78.5 -1q27 0 81 1t81 1l-9 -40q-57 -3 -71 -16t-25 -76l-72 -339q-7 -37 -7 -56q0 -65 45 -94t115 -29q46 0 80 12t55 31t36 50t24 61.5t19 73.5q1 7 2 10l49 230q15 59 13 106q0 5 -1 9.5
t-2.5 7.5t-4 5.5t-5 4.5t-7.5 3t-9 2t-11.5 1.5t-13 0.5t-16 1t-18.5 1l7 40q20 0 61 -1t61 -1q21 0 61.5 1t60.5 1l-8 -40q-7 -1 -22 -2.5t-18.5 -1.5t-13 -3t-11.5 -5.5t-8.5 -11t-8.5 -15.5t-7.5 -23.5t-9 -31.5t-10.5 -43l-82 -342q-25 -101 -98 -142t-187 -41
q-45 0 -87 8t-83.5 26t-66.5 53t-25 84q0 38 14 104zM510 887l101 -138h-50l-123 78q-15 10 -23 15.5t-16 18t-8 25.5q0 19 15.5 33t34.5 14q36 0 69 -46z"/>
            <glyph glyph-name="Uacute" unicode="&#xda;" horiz-adv-x="778"
                   d="M122 265l60 295q7 36 8.5 52.5t-9 26.5t-24 11.5t-48.5 1.5l9 40q26 0 78.5 -1t78.5 -1q27 0 81 1t81 1l-9 -40q-57 -3 -71 -16t-25 -76l-72 -339q-7 -37 -7 -56q0 -65 45 -94t115 -29q46 0 80 12t55 31t36 50t24 61.5t19 73.5q1 7 2 10l49 230q15 59 13 106q0 5 -1 9.5
t-2.5 7.5t-4 5.5t-5 4.5t-7.5 3t-9 2t-11.5 1.5t-13 0.5t-16 1t-18.5 1l7 40q20 0 61 -1t61 -1q21 0 61.5 1t60.5 1l-8 -40q-7 -1 -22 -2.5t-18.5 -1.5t-13 -3t-11.5 -5.5t-8.5 -11t-8.5 -15.5t-7.5 -23.5t-9 -31.5t-10.5 -43l-82 -342q-25 -101 -98 -142t-187 -41
q-45 0 -87 8t-83.5 26t-66.5 53t-25 84q0 38 14 104zM420 749l121 134q45 50 74 50q21 0 37 -15.5t16 -36.5q0 -35 -64 -63l-129 -69h-55z"/>
            <glyph glyph-name="Ucircumflex" unicode="&#xdb;" horiz-adv-x="778"
                   d="M122 265l60 295q7 36 8.5 52.5t-9 26.5t-24 11.5t-48.5 1.5l9 40q26 0 78.5 -1t78.5 -1q27 0 81 1t81 1l-9 -40q-57 -3 -71 -16t-25 -76l-72 -339q-7 -37 -7 -56q0 -65 45 -94t115 -29q46 0 80 12t55 31t36 50t24 61.5t19 73.5q1 7 2 10l49 230q15 59 13 106q0 5 -1 9.5
t-2.5 7.5t-4 5.5t-5 4.5t-7.5 3t-9 2t-11.5 1.5t-13 0.5t-16 1t-18.5 1l7 40q20 0 61 -1t61 -1q21 0 61.5 1t60.5 1l-8 -40q-7 -1 -22 -2.5t-18.5 -1.5t-13 -3t-11.5 -5.5t-8.5 -11t-8.5 -15.5t-7.5 -23.5t-9 -31.5t-10.5 -43l-82 -342q-25 -101 -98 -142t-187 -41
q-45 0 -87 8t-83.5 26t-66.5 53t-25 84q0 38 14 104zM588 923l84 -174h-57l-92 90l-128 -90h-65l159 174h99z"/>
            <glyph glyph-name="Udieresis" unicode="&#xdc;" horiz-adv-x="778"
                   d="M122 265l60 295q7 36 8.5 52.5t-9 26.5t-24 11.5t-48.5 1.5l9 40q26 0 78.5 -1t78.5 -1q27 0 81 1t81 1l-9 -40q-57 -3 -71 -16t-25 -76l-72 -339q-7 -37 -7 -56q0 -65 45 -94t115 -29q46 0 80 12t55 31t36 50t24 61.5t19 73.5q1 7 2 10l49 230q15 59 13 106q0 5 -1 9.5
t-2.5 7.5t-4 5.5t-5 4.5t-7.5 3t-9 2t-11.5 1.5t-13 0.5t-16 1t-18.5 1l7 40q20 0 61 -1t61 -1q21 0 61.5 1t60.5 1l-8 -40q-7 -1 -22 -2.5t-18.5 -1.5t-13 -3t-11.5 -5.5t-8.5 -11t-8.5 -15.5t-7.5 -23.5t-9 -31.5t-10.5 -43l-82 -342q-25 -101 -98 -142t-187 -41
q-45 0 -87 8t-83.5 26t-66.5 53t-25 84q0 38 14 104zM719 834q0 -29 -21.5 -50.5t-49.5 -21.5q-29 0 -50.5 21.5t-21.5 50.5q0 28 21.5 49.5t50.5 21.5q28 0 49.5 -21.5t21.5 -49.5zM504 834q0 -29 -21.5 -50.5t-50.5 -21.5q-28 0 -49.5 21.5t-21.5 50.5q0 28 21.5 49.5
t49.5 21.5q29 0 50.5 -21.5t21.5 -49.5z"/>
            <glyph glyph-name="Yacute" unicode="&#xdd;" horiz-adv-x="667"
                   d="M414 354l121 158q67 88 67 111q0 11 -6 17.5t-20 8.5t-22 2.5t-28 0.5l9 40q20 0 58.5 -1t57.5 -1q20 0 58 1t58 1l-9 -40q-12 -1 -18.5 -2.5t-13 -2t-11.5 -4t-8.5 -5t-9.5 -8t-9.5 -10.5t-13 -15t-16.5 -19l-227 -285l-41 -171q-5 -24 -7 -38t1 -25.5t6.5 -16t18 -8
t26.5 -4t40 -0.5l-9 -40q-29 0 -85 0.5t-84 1.5q-28 -1 -83 -1.5t-84 -0.5l9 40q61 3 75.5 16t25.5 76l39 164l-86 244q-12 32 -16 42t-13 28t-14 22t-16.5 11t-23.5 8.5t-32 2.5l9 40q28 0 84 -1t84 -1t84 1t84 1l-9 -40q-13 0 -27.5 -0.5t-27 -1.5t-21 -10t-8.5 -25
q0 -22 27 -103zM369 749l121 134q45 50 74 50q21 0 37 -15.5t16 -36.5q0 -35 -64 -63l-129 -69h-55z"/>
            <glyph glyph-name="Thorn" unicode="&#xde;" horiz-adv-x="667"
                   d="M330 499l-67 -311h46q97 -2 134.5 48.5t48.5 155.5q7 73 -37.5 94t-124.5 13zM101 130l97 448q10 52 -5 63t-69 11h-10l9 40q27 0 82 -0.5t80 -1.5q27 0 81 1t81 1l-9 -40q-57 -3 -71 -16t-25 -76l-4 -18q11 0 34 0.5t35 0.5q43 1 73.5 -1.5t63 -12t53 -27.5t33.5 -49.5
t13 -76.5q0 -43 -16 -83q-25 -65 -69 -94t-120 -43q-45 -8 -92 -6h-92l-3 -20q-5 -24 -7 -38t1 -25.5t7 -16t18 -8t26.5 -4t40.5 -0.5l-9 -40q-30 0 -86 0.5t-84 1.5q-27 0 -81 -1t-81 -1l9 40q57 3 71 16t25 76z"/>
            <glyph glyph-name="germandbls" unicode="&#xdf;" horiz-adv-x="611"
                   d="M288 564l-107 -475q-12 -56 -32 -110t-51 -108.5t-78 -87.5t-102 -33q-35 0 -59.5 21.5t-24.5 56.5q0 25 16 42.5t41 19.5q29 -1 39.5 -13.5t10.5 -34.5v-15.5t1 -10.5t1 -7t2.5 -4t3.5 -2t6 -1t7 -2q9 0 17.5 5.5t14 12.5t11.5 19.5t8.5 20.5t6.5 21.5t5 15.5
q16 57 47 245q2 12 13 73t20.5 115.5t9.5 60.5q0 32 -63 32h-15l6 37h85q30 136 80 200q66 87 190 87q51 0 91.5 -10.5t70.5 -43t30 -83.5q0 -42 -21.5 -73t-48 -45.5t-53 -33.5t-34.5 -39q-2 -9 65 -103q68 -78 68 -149q0 -87 -62.5 -131t-153.5 -44q-62 0 -131 36l36 118
h57q-6 -28 -6 -56q0 -61 55 -61q40 0 60 24.5t20 65.5q0 21 -8.5 43t-14.5 31.5t-26 37.5l-52 68q-27 37 -29 64q0 26 49 66q96 77 96 203q0 75 -67 75q-31 0 -53 -25t-28.5 -44.5t-16.5 -60.5q-1 -3 -1.5 -4t-1 -3t-0.5 -4z"/>
            <glyph glyph-name="agrave" unicode="&#xe0;" horiz-adv-x="611"
                   d="M335 433q-35 2 -64 -35t-44.5 -90t-24 -101.5t-8.5 -78.5t16 -55t44 -26q29 -2 53 13.5t39.5 45t26.5 60t17.5 70t9.5 62.5t5 49q3 36 -15 61t-55 25zM435 413l8 57h133l-80 -366q-6 -24 -6 -41q0 -6 2 -10.5t6.5 -7t8.5 -4t11.5 -2.5t11.5 -1.5t13 -0.5h12l-8 -37h-198
l16 64l-2 2q-31 -40 -66 -58t-85 -18q-79 5 -120.5 52.5t-37.5 128.5q0 129 66 219t189 90q90 0 124 -67h2zM376 672l101 -138h-50l-123 78q-15 10 -23 15.5t-16 18t-8 25.5q0 19 15.5 33t34.5 14q36 0 69 -46z"/>
            <glyph glyph-name="aacute" unicode="&#xe1;" horiz-adv-x="611"
                   d="M335 433q-35 2 -64 -35t-44.5 -90t-24 -101.5t-8.5 -78.5t16 -55t44 -26q29 -2 53 13.5t39.5 45t26.5 60t17.5 70t9.5 62.5t5 49q3 36 -15 61t-55 25zM435 413l8 57h133l-80 -366q-6 -24 -6 -41q0 -6 2 -10.5t6.5 -7t8.5 -4t11.5 -2.5t11.5 -1.5t13 -0.5h12l-8 -37h-198
l16 64l-2 2q-31 -40 -66 -58t-85 -18q-79 5 -120.5 52.5t-37.5 128.5q0 129 66 219t189 90q90 0 124 -67h2zM306 534l121 134q45 50 74 50q21 0 37 -15.5t16 -36.5q0 -35 -64 -63l-129 -69h-55z"/>
            <glyph glyph-name="acircumflex" unicode="&#xe2;" horiz-adv-x="611"
                   d="M335 433q-35 2 -64 -35t-44.5 -90t-24 -101.5t-8.5 -78.5t16 -55t44 -26q29 -2 53 13.5t39.5 45t26.5 60t17.5 70t9.5 62.5t5 49q3 36 -15 61t-55 25zM435 413l8 57h133l-80 -366q-6 -24 -6 -41q0 -6 2 -10.5t6.5 -7t8.5 -4t11.5 -2.5t11.5 -1.5t13 -0.5h12l-8 -37h-198
l16 64l-2 2q-31 -40 -66 -58t-85 -18q-79 5 -120.5 52.5t-37.5 128.5q0 129 66 219t189 90q90 0 124 -67h2zM464 708l84 -174h-57l-92 90l-128 -90h-65l159 174h99z"/>
            <glyph glyph-name="atilde" unicode="&#xe3;" horiz-adv-x="611"
                   d="M335 433q-35 2 -64 -35t-44.5 -90t-24 -101.5t-8.5 -78.5t16 -55t44 -26q29 -2 53 13.5t39.5 45t26.5 60t17.5 70t9.5 62.5t5 49q3 36 -15 61t-55 25zM435 413l8 57h133l-80 -366q-6 -24 -6 -41q0 -6 2 -10.5t6.5 -7t8.5 -4t11.5 -2.5t11.5 -1.5t13 -0.5h12l-8 -37h-198
l16 64l-2 2q-31 -40 -66 -58t-85 -18q-79 5 -120.5 52.5t-37.5 128.5q0 129 66 219t189 90q90 0 124 -67h2zM532 690h45q-6 -52 -40 -88.5t-85 -36.5q-30 0 -82 21q-54 20 -71 20q-20 0 -29.5 -10t-17.5 -31h-45q6 48 40 86.5t80 38.5q32 0 84 -20q52 -21 67 -21q38 0 54 41
z"/>
            <glyph glyph-name="adieresis" unicode="&#xe4;" horiz-adv-x="611"
                   d="M335 433q-35 2 -64 -35t-44.5 -90t-24 -101.5t-8.5 -78.5t16 -55t44 -26q29 -2 53 13.5t39.5 45t26.5 60t17.5 70t9.5 62.5t5 49q3 36 -15 61t-55 25zM435 413l8 57h133l-80 -366q-6 -24 -6 -41q0 -6 2 -10.5t6.5 -7t8.5 -4t11.5 -2.5t11.5 -1.5t13 -0.5h12l-8 -37h-198
l16 64l-2 2q-31 -40 -66 -58t-85 -18q-79 5 -120.5 52.5t-37.5 128.5q0 129 66 219t189 90q90 0 124 -67h2zM575 619q0 -29 -21.5 -50.5t-49.5 -21.5q-29 0 -50.5 21.5t-21.5 50.5q0 28 21.5 49.5t50.5 21.5q28 0 49.5 -21.5t21.5 -49.5zM360 619q0 -29 -21.5 -50.5
t-50.5 -21.5q-28 0 -49.5 21.5t-21.5 50.5q0 28 21.5 49.5t49.5 21.5q29 0 50.5 -21.5t21.5 -49.5z"/>
            <glyph glyph-name="aring" unicode="&#xe5;" horiz-adv-x="611"
                   d="M335 433q-35 2 -64 -35t-44.5 -90t-24 -101.5t-8.5 -78.5t16 -55t44 -26q29 -2 53 13.5t39.5 45t26.5 60t17.5 70t9.5 62.5t5 49q3 36 -15 61t-55 25zM435 413l8 57h133l-80 -366q-6 -24 -6 -41q0 -6 2 -10.5t6.5 -7t8.5 -4t11.5 -2.5t11.5 -1.5t13 -0.5h12l-8 -37h-198
l16 64l-2 2q-31 -40 -66 -58t-85 -18q-79 5 -120.5 52.5t-37.5 128.5q0 129 66 219t189 90q90 0 124 -67h2zM487 630q0 -43 -31 -73.5t-73 -30.5q-43 0 -74 30.5t-31 73.5t31 73.5t74 30.5q42 0 73 -30.5t31 -73.5zM323 630q0 -24 18 -41.5t42 -17.5t41.5 17.5t17.5 41.5
t-17.5 41.5t-41.5 17.5t-42 -17.5t-18 -41.5z"/>
            <glyph glyph-name="ae" unicode="&#xe6;" horiz-adv-x="889"
                   d="M524 276h179q8 54 8 83q0 82 -69 82q-24 0 -43.5 -11.5t-31 -27.5t-21 -41t-13.5 -42.5t-9 -42.5zM385 234h-66q-56 -2 -90.5 -32.5t-34.5 -85.5q0 -33 18.5 -53.5t51.5 -20.5q31 0 55.5 20.5t37.5 52t20 61.5t8 58zM275 276h116q12 50 12 88q0 76 -90 76q-72 0 -93 -84
q0 -22 -30 -22h-52q-18 0 -23.5 5t-2.5 17q6 34 26 59.5t49.5 39t60.5 19.5t66 6q116 0 166 -57q2 1 6 5.5t6 6.5q50 45 156 45q92 0 142 -46.5t50 -137.5q0 -21 -4 -39q0 -16 -5 -20t-23 -3h-292q-10 -51 -10 -108q0 -45 21.5 -71t65.5 -26q26 0 45.5 8.5t32 26.5t18 30
t13.5 34q1 13 7.5 17t23.5 4h54q32 0 20 -25q-23 -47 -56.5 -79.5t-71.5 -41.5q-55 -13 -97 -13q-71 0 -115.5 19t-74.5 75q-52 -93 -188 -93q-61 0 -104.5 31t-43.5 89q0 47 17.5 80t50.5 50.5t69 25t82 9.5z"/>
            <glyph glyph-name="ccedilla" unicode="&#xe7;" horiz-adv-x="500"
                   d="M457 313h-60q0 5 2.5 24.5t1.5 29.5q-5 64 -64 71q-40 5 -71 -30.5t-47.5 -92t-25 -107.5t-9.5 -92q-1 -36 15.5 -60t51.5 -24q40 0 68 26.5t38 70.5q3 17 25 17h45q13 0 17 -8t0 -13q-30 -72 -78 -103t-126 -32l-37 -59q18 5 35 5q38 0 68 -16.5t30 -52.5q0 -46 -43 -67
t-94 -21q-65 0 -124 31l20 33q45 -25 87 -25q23 0 40 12t17 29q0 37 -51 39q-16 2 -27 -5l-15 12l53 87q-70 8 -112 47.5t-42 110.5q0 93 35 182q29 73 90 110.5t143 37.5q22 0 48 -3.5t41 -6.5t49 -10.5t43 -9.5q-8 -25 -37 -137z"/>
            <glyph glyph-name="egrave" unicode="&#xe8;"
                   d="M413 146h75q6 0 8 -4.5t0.5 -10.5t-3.5 -11t-4 -9q-29 -62 -90.5 -91.5t-136.5 -29.5q-95 0 -152 43.5t-57 135.5q0 139 70 225t206 86q195 0 195 -182q0 -42 -5 -63h-316q-12 -57 -12 -118q0 -39 25.5 -63t65.5 -24t72.5 26.5t40.5 66.5q4 23 18 23zM212 277h178
q0 11 3 35.5t3 38.5q0 89 -65 89q-12 0 -22.5 -3.5t-18.5 -7.5t-16.5 -13.5t-13.5 -15.5t-11.5 -19.5t-10 -20t-8.5 -22.5t-6.5 -21t-6 -21.5t-5.5 -18.5zM339 672l101 -138h-50l-123 78q-15 10 -23 15.5t-16 18t-8 25.5q0 19 15.5 33t34.5 14q36 0 69 -46z"/>
            <glyph glyph-name="eacute" unicode="&#xe9;"
                   d="M413 146h75q6 0 8 -4.5t0.5 -10.5t-3.5 -11t-4 -9q-29 -62 -90.5 -91.5t-136.5 -29.5q-95 0 -152 43.5t-57 135.5q0 139 70 225t206 86q195 0 195 -182q0 -42 -5 -63h-316q-12 -57 -12 -118q0 -39 25.5 -63t65.5 -24t72.5 26.5t40.5 66.5q4 23 18 23zM212 277h178
q0 11 3 35.5t3 38.5q0 89 -65 89q-12 0 -22.5 -3.5t-18.5 -7.5t-16.5 -13.5t-13.5 -15.5t-11.5 -19.5t-10 -20t-8.5 -22.5t-6.5 -21t-6 -21.5t-5.5 -18.5zM259 534l121 134q45 50 74 50q21 0 37 -15.5t16 -36.5q0 -35 -64 -63l-129 -69h-55z"/>
            <glyph glyph-name="ecircumflex" unicode="&#xea;"
                   d="M413 146h75q6 0 8 -4.5t0.5 -10.5t-3.5 -11t-4 -9q-29 -62 -90.5 -91.5t-136.5 -29.5q-95 0 -152 43.5t-57 135.5q0 139 70 225t206 86q195 0 195 -182q0 -42 -5 -63h-316q-12 -57 -12 -118q0 -39 25.5 -63t65.5 -24t72.5 26.5t40.5 66.5q4 23 18 23zM212 277h178
q0 11 3 35.5t3 38.5q0 89 -65 89q-12 0 -22.5 -3.5t-18.5 -7.5t-16.5 -13.5t-13.5 -15.5t-11.5 -19.5t-10 -20t-8.5 -22.5t-6.5 -21t-6 -21.5t-5.5 -18.5zM437 708l84 -174h-57l-92 90l-128 -90h-65l159 174h99z"/>
            <glyph glyph-name="edieresis" unicode="&#xeb;"
                   d="M413 146h75q6 0 8 -4.5t0.5 -10.5t-3.5 -11t-4 -9q-29 -62 -90.5 -91.5t-136.5 -29.5q-95 0 -152 43.5t-57 135.5q0 139 70 225t206 86q195 0 195 -182q0 -42 -5 -63h-316q-12 -57 -12 -118q0 -39 25.5 -63t65.5 -24t72.5 26.5t40.5 66.5q4 23 18 23zM212 277h178
q0 11 3 35.5t3 38.5q0 89 -65 89q-12 0 -22.5 -3.5t-18.5 -7.5t-16.5 -13.5t-13.5 -15.5t-11.5 -19.5t-10 -20t-8.5 -22.5t-6.5 -21t-6 -21.5t-5.5 -18.5zM548 619q0 -29 -21.5 -50.5t-49.5 -21.5q-29 0 -50.5 21.5t-21.5 50.5q0 28 21.5 49.5t50.5 21.5q28 0 49.5 -21.5
t21.5 -49.5zM333 619q0 -29 -21.5 -50.5t-50.5 -21.5q-28 0 -49.5 21.5t-21.5 50.5q0 28 21.5 49.5t49.5 21.5q29 0 50.5 -21.5t21.5 -49.5z"/>
            <glyph glyph-name="igrave" unicode="&#xec;" horiz-adv-x="333"
                   d="M292 470l-80 -370q-5 -20 -6 -37q0 -5 1 -8.5t4 -6t6 -4.5t8 -3t8.5 -1.5t9.5 -1.5t9 -1h24l-8 -39q-23 0 -69.5 1t-69.5 1t-69 -0.5t-69 -1.5l8 39h27q25 2 34.5 14.5t17.5 48.5l53 255l7 37q2 14 -1 22.5t-14 12t-19.5 4t-27.5 0.5h-6l8 39h214zM227 672l101 -138h-50
l-123 78q-15 10 -23 15.5t-16 18t-8 25.5q0 19 15.5 33t34.5 14q36 0 69 -46z"/>
            <glyph glyph-name="iacute" unicode="&#xed;" horiz-adv-x="333"
                   d="M292 470l-80 -370q-5 -20 -6 -37q0 -5 1 -8.5t4 -6t6 -4.5t8 -3t8.5 -1.5t9.5 -1.5t9 -1h24l-8 -39q-23 0 -69.5 1t-69.5 1t-69 -0.5t-69 -1.5l8 39h27q25 2 34.5 14.5t17.5 48.5l53 255l7 37q2 14 -1 22.5t-14 12t-19.5 4t-27.5 0.5h-6l8 39h214zM147 534l121 134
q45 50 74 50q21 0 37 -15.5t16 -36.5q0 -35 -64 -63l-129 -69h-55z"/>
            <glyph glyph-name="icircumflex" unicode="&#xee;" horiz-adv-x="333"
                   d="M292 470l-80 -370q-5 -20 -6 -37q0 -5 1 -8.5t4 -6t6 -4.5t8 -3t8.5 -1.5t9.5 -1.5t9 -1h24l-8 -39q-23 0 -69.5 1t-69.5 1t-69 -0.5t-69 -1.5l8 39h27q25 2 34.5 14.5t17.5 48.5l53 255l7 37q2 14 -1 22.5t-14 12t-19.5 4t-27.5 0.5h-6l8 39h214zM305 708l84 -174h-57
l-92 90l-128 -90h-65l159 174h99z"/>
            <glyph glyph-name="idieresis" unicode="&#xef;" horiz-adv-x="333"
                   d="M292 470l-80 -370q-5 -20 -6 -37q0 -5 1 -8.5t4 -6t6 -4.5t8 -3t8.5 -1.5t9.5 -1.5t9 -1h24l-8 -39q-23 0 -69.5 1t-69.5 1t-69 -0.5t-69 -1.5l8 39h27q25 2 34.5 14.5t17.5 48.5l53 255l7 37q2 14 -1 22.5t-14 12t-19.5 4t-27.5 0.5h-6l8 39h214zM416 619
q0 -29 -21.5 -50.5t-49.5 -21.5q-29 0 -50.5 21.5t-21.5 50.5q0 28 21.5 49.5t50.5 21.5q28 0 49.5 -21.5t21.5 -49.5zM201 619q0 -29 -21.5 -50.5t-50.5 -21.5q-28 0 -49.5 21.5t-21.5 50.5q0 28 21.5 49.5t49.5 21.5q29 0 50.5 -21.5t21.5 -49.5z"/>
            <glyph glyph-name="eth" unicode="&#xf0;"
                   d="M248 29q40 0 70.5 41.5t45 102t21.5 111t7 84.5q0 33 -19 53t-52 20q-36 0 -64.5 -40.5t-43 -98t-21.5 -107t-7 -81.5q0 -85 63 -85zM500 730l42 -34l-122 -60q105 -108 109 -274q4 -179 -73 -275.5t-208 -96.5q-93 0 -147 45.5t-54 135.5q0 141 66.5 225t201.5 84
q53 0 100 -37l2 2q-14 84 -70 155l-143 -71l-42 34l150 74q-65 61 -139 78l35 30q102 -20 173 -74z"/>
            <glyph glyph-name="ntilde" unicode="&#xf1;" horiz-adv-x="611"
                   d="M277 470l-17 -70l2 -2q66 77 166 77q55 0 94.5 -24.5t33.5 -66.5q-6 -48 -16 -96t-22.5 -104t-18.5 -84q-8 -42 3.5 -53t58.5 -13l-8 -36q-18 0 -54.5 1t-54.5 1t-54.5 -1t-54.5 -1q82 315 79 364q-1 19 -19 30t-39 11q-22 0 -39.5 -5.5t-30.5 -20t-21.5 -24.5
t-16.5 -34.5t-10.5 -34t-9 -39t-7.5 -34.5l-23 -111q-4 -18 -6 -36q0 -5 1 -8.5t4 -6t6 -4.5t8 -3t8.5 -1.5t9.5 -1.5t9 -1h14l-8 -40q-19 1 -63 1.5t-66 0.5q-23 0 -68 -0.5t-66 -1.5l8 40h23q25 2 34.5 14.5t17.5 47.5l52 235q11 44 11 62q0 16 -13.5 24t-24 9t-31.5 2
l8 38h211zM522 690h45q-6 -52 -40 -88.5t-85 -36.5q-30 0 -82 21q-54 20 -71 20q-20 0 -29.5 -10t-17.5 -31h-45q6 48 40 86.5t80 38.5q32 0 84 -20q52 -21 67 -21q38 0 54 41z"/>
            <glyph glyph-name="ograve" unicode="&#xf2;"
                   d="M315 480q56 0 103 -15.5t80 -54.5t33 -96q-1 -53 -8.5 -96.5t-26.5 -87t-49.5 -73.5t-81 -48.5t-117.5 -18.5q-93 0 -147 45.5t-54 135.5q0 141 66.5 225t201.5 84zM321 441q-36 0 -64.5 -40.5t-43 -98t-21.5 -107t-7 -81.5q0 -85 63 -85q39 -1 69.5 40.5t45.5 101.5
t22 111.5t7 85.5q0 33 -19 53t-52 20zM349 672l101 -138h-50l-123 78q-15 10 -23 15.5t-16 18t-8 25.5q0 19 15.5 33t34.5 14q36 0 69 -46z"/>
            <glyph glyph-name="oacute" unicode="&#xf3;"
                   d="M315 480q56 0 103 -15.5t80 -54.5t33 -96q-1 -53 -8.5 -96.5t-26.5 -87t-49.5 -73.5t-81 -48.5t-117.5 -18.5q-93 0 -147 45.5t-54 135.5q0 141 66.5 225t201.5 84zM321 441q-36 0 -64.5 -40.5t-43 -98t-21.5 -107t-7 -81.5q0 -85 63 -85q39 -1 69.5 40.5t45.5 101.5
t22 111.5t7 85.5q0 33 -19 53t-52 20zM269 534l121 134q45 50 74 50q21 0 37 -15.5t16 -36.5q0 -35 -64 -63l-129 -69h-55z"/>
            <glyph glyph-name="ocircumflex" unicode="&#xf4;"
                   d="M315 480q56 0 103 -15.5t80 -54.5t33 -96q-1 -53 -8.5 -96.5t-26.5 -87t-49.5 -73.5t-81 -48.5t-117.5 -18.5q-93 0 -147 45.5t-54 135.5q0 141 66.5 225t201.5 84zM321 441q-36 0 -64.5 -40.5t-43 -98t-21.5 -107t-7 -81.5q0 -85 63 -85q39 -1 69.5 40.5t45.5 101.5
t22 111.5t7 85.5q0 33 -19 53t-52 20zM437 708l84 -174h-57l-92 90l-128 -90h-65l159 174h99z"/>
            <glyph glyph-name="otilde" unicode="&#xf5;"
                   d="M315 480q56 0 103 -15.5t80 -54.5t33 -96q-1 -53 -8.5 -96.5t-26.5 -87t-49.5 -73.5t-81 -48.5t-117.5 -18.5q-93 0 -147 45.5t-54 135.5q0 141 66.5 225t201.5 84zM321 441q-36 0 -64.5 -40.5t-43 -98t-21.5 -107t-7 -81.5q0 -85 63 -85q39 -1 69.5 40.5t45.5 101.5
t22 111.5t7 85.5q0 33 -19 53t-52 20zM495 690h45q-6 -52 -40 -88.5t-85 -36.5q-30 0 -82 21q-54 20 -71 20q-20 0 -29.5 -10t-17.5 -31h-45q6 48 40 86.5t80 38.5q32 0 84 -20q52 -21 67 -21q38 0 54 41z"/>
            <glyph glyph-name="odieresis" unicode="&#xf6;"
                   d="M315 480q56 0 103 -15.5t80 -54.5t33 -96q-1 -53 -8.5 -96.5t-26.5 -87t-49.5 -73.5t-81 -48.5t-117.5 -18.5q-93 0 -147 45.5t-54 135.5q0 141 66.5 225t201.5 84zM321 441q-36 0 -64.5 -40.5t-43 -98t-21.5 -107t-7 -81.5q0 -85 63 -85q39 -1 69.5 40.5t45.5 101.5
t22 111.5t7 85.5q0 33 -19 53t-52 20zM548 619q0 -29 -21.5 -50.5t-49.5 -21.5q-29 0 -50.5 21.5t-21.5 50.5q0 28 21.5 49.5t50.5 21.5q28 0 49.5 -21.5t21.5 -49.5zM333 619q0 -29 -21.5 -50.5t-50.5 -21.5q-28 0 -49.5 21.5t-21.5 50.5q0 28 21.5 49.5t49.5 21.5
q29 0 50.5 -21.5t21.5 -49.5z"/>
            <glyph glyph-name="divide" unicode="&#xf7;" horiz-adv-x="606"
                   d="M50 204v88h506v-88h-506zM375 430q0 -29 -21.5 -50.5t-50.5 -21.5q-28 0 -49.5 21.5t-21.5 50.5q0 28 21.5 49.5t49.5 21.5q29 0 50.5 -21.5t21.5 -49.5zM375 67q0 -29 -21.5 -50.5t-50.5 -21.5q-28 0 -49.5 21.5t-21.5 50.5q0 28 21.5 49.5t49.5 21.5q29 0 50.5 -21.5
t21.5 -49.5z"/>
            <glyph glyph-name="oslash" unicode="&#xf8;"
                   d="M388 313l-202 -206q0 -78 62 -78q35 0 62.5 32.5t43 85t23 90t11.5 76.5zM188 168l203 207q-2 31 -20.5 48.5t-49.5 17.5q-98 0 -133 -273zM459 445l62 63l29 -29l-59 -60q40 -46 40 -105q0 -148 -70 -236t-213 -88q-84 0 -138 40l-67 -68l-28 29l65 66q-33 42 -33 114
q0 141 66.5 225t201.5 84q87 0 144 -35z"/>
            <glyph glyph-name="ugrave" unicode="&#xf9;" horiz-adv-x="611"
                   d="M345 -2l14 68q-42 -42 -79.5 -59t-95.5 -17q-51 0 -84.5 24.5t-33.5 73.5q0 33 12 89l41 193q4 16 3.5 26.5t-2.5 16t-9.5 9t-13.5 4.5t-19.5 2.5l-22.5 2.5l8 39h217l-68 -306q-13 -38 -4.5 -68.5t53.5 -30.5q43 0 72.5 23t38.5 64l48 214q4 21 4.5 32t-4.5 17t-9.5 7.5
t-21 3.5t-28.5 5l6 39h208l-73 -346q-14 -57 -8 -70.5t58 -18.5l-8 -37q-16 0 -49 1t-50 1t-50 -1t-50 -1zM366 672l101 -138h-50l-123 78q-15 10 -23 15.5t-16 18t-8 25.5q0 19 15.5 33t34.5 14q36 0 69 -46z"/>
            <glyph glyph-name="uacute" unicode="&#xfa;" horiz-adv-x="611"
                   d="M345 -2l14 68q-42 -42 -79.5 -59t-95.5 -17q-51 0 -84.5 24.5t-33.5 73.5q0 33 12 89l41 193q4 16 3.5 26.5t-2.5 16t-9.5 9t-13.5 4.5t-19.5 2.5l-22.5 2.5l8 39h217l-68 -306q-13 -38 -4.5 -68.5t53.5 -30.5q43 0 72.5 23t38.5 64l48 214q4 21 4.5 32t-4.5 17t-9.5 7.5
t-21 3.5t-28.5 5l6 39h208l-73 -346q-14 -57 -8 -70.5t58 -18.5l-8 -37q-16 0 -49 1t-50 1t-50 -1t-50 -1zM286 534l121 134q45 50 74 50q21 0 37 -15.5t16 -36.5q0 -35 -64 -63l-129 -69h-55z"/>
            <glyph glyph-name="ucircumflex" unicode="&#xfb;" horiz-adv-x="611"
                   d="M345 -2l14 68q-42 -42 -79.5 -59t-95.5 -17q-51 0 -84.5 24.5t-33.5 73.5q0 33 12 89l41 193q4 16 3.5 26.5t-2.5 16t-9.5 9t-13.5 4.5t-19.5 2.5l-22.5 2.5l8 39h217l-68 -306q-13 -38 -4.5 -68.5t53.5 -30.5q43 0 72.5 23t38.5 64l48 214q4 21 4.5 32t-4.5 17t-9.5 7.5
t-21 3.5t-28.5 5l6 39h208l-73 -346q-14 -57 -8 -70.5t58 -18.5l-8 -37q-16 0 -49 1t-50 1t-50 -1t-50 -1zM454 708l84 -174h-57l-92 90l-128 -90h-65l159 174h99z"/>
            <glyph glyph-name="udieresis" unicode="&#xfc;" horiz-adv-x="611"
                   d="M345 -2l14 68q-42 -42 -79.5 -59t-95.5 -17q-51 0 -84.5 24.5t-33.5 73.5q0 33 12 89l41 193q4 16 3.5 26.5t-2.5 16t-9.5 9t-13.5 4.5t-19.5 2.5l-22.5 2.5l8 39h217l-68 -306q-13 -38 -4.5 -68.5t53.5 -30.5q43 0 72.5 23t38.5 64l48 214q4 21 4.5 32t-4.5 17t-9.5 7.5
t-21 3.5t-28.5 5l6 39h208l-73 -346q-14 -57 -8 -70.5t58 -18.5l-8 -37q-16 0 -49 1t-50 1t-50 -1t-50 -1zM575 619q0 -29 -21.5 -50.5t-49.5 -21.5q-29 0 -50.5 21.5t-21.5 50.5q0 28 21.5 49.5t50.5 21.5q28 0 49.5 -21.5t21.5 -49.5zM360 619q0 -29 -21.5 -50.5
t-50.5 -21.5q-28 0 -49.5 21.5t-21.5 50.5q0 28 21.5 49.5t49.5 21.5q29 0 50.5 -21.5t21.5 -49.5z"/>
            <glyph glyph-name="yacute" unicode="&#xfd;"
                   d="M158 0l-50 358q-4 31 -7.5 44t-17 22t-41.5 9l8 39q21 0 63 -1t63 -1t63 1t63 1l-8 -39q-22 0 -31.5 -1t-17 -7t-6.5 -19l37 -314q4 7 27.5 47.5t45 77t45 79.5t38 73.5t14.5 40.5q0 15 -16.5 19t-47.5 4l8 39q17 0 50.5 -1t50.5 -1t50.5 1t50.5 1l-8 -39
q-4 -1 -14.5 -2.5t-12.5 -3t-9 -2.5t-9 -3.5t-6.5 -4.5t-8.5 -8t-7.5 -9.5t-10 -14.5t-11 -18t-14.5 -23l-311 -503q-58 -91 -131 -91q-23 0 -45 12t-31 32q-10 25 5 51.5t42 26.5q23 0 44 -24.5t34 -27.5q10 0 20.5 9t13.5 13.5t12 19.5l85 138h-61zM279 534l121 134
q45 50 74 50q21 0 37 -15.5t16 -36.5q0 -35 -64 -63l-129 -69h-55z"/>
            <glyph glyph-name="thorn" unicode="&#xfe;" horiz-adv-x="611"
                   d="M361 419q-39 0 -69.5 -36t-45.5 -88t-22.5 -98.5t-7.5 -79.5q0 -35 19 -57.5t53 -22.5q37 0 66.5 33.5t44.5 82.5t22.5 94t7.5 78q0 94 -68 94zM214 -213l-8 -39q-92 2 -139 2q-48 0 -138 -2l8 39h27q25 2 34.5 14.5t17.5 48.5l156 760q11 44 11 62q0 16 -13.5 24t-24 9
t-31.5 2l8 38h211l-73 -343l2 -2q38 45 67.5 62.5t81.5 17.5q74 0 118.5 -45.5t44.5 -119.5q0 -82 -26.5 -154t-86.5 -121.5t-143 -49.5q-84 0 -126 52l-42 -192q-5 -20 -6 -37q0 -5 1 -8.5t4 -6t6 -4.5t8 -3t8.5 -1.5t9.5 -1.5t9 -1h24z"/>
            <glyph glyph-name="ydieresis" unicode="&#xff;"
                   d="M158 0l-50 358q-4 31 -7.5 44t-17 22t-41.5 9l8 39q21 0 63 -1t63 -1t63 1t63 1l-8 -39q-22 0 -31.5 -1t-17 -7t-6.5 -19l37 -314q4 7 27.5 47.5t45 77t45 79.5t38 73.5t14.5 40.5q0 15 -16.5 19t-47.5 4l8 39q17 0 50.5 -1t50.5 -1t50.5 1t50.5 1l-8 -39
q-4 -1 -14.5 -2.5t-12.5 -3t-9 -2.5t-9 -3.5t-6.5 -4.5t-8.5 -8t-7.5 -9.5t-10 -14.5t-11 -18t-14.5 -23l-311 -503q-58 -91 -131 -91q-23 0 -45 12t-31 32q-10 25 5 51.5t42 26.5q23 0 44 -24.5t34 -27.5q10 0 20.5 9t13.5 13.5t12 19.5l85 138h-61zM548 619
q0 -29 -21.5 -50.5t-49.5 -21.5q-29 0 -50.5 21.5t-21.5 50.5q0 28 21.5 49.5t50.5 21.5q28 0 49.5 -21.5t21.5 -49.5zM333 619q0 -29 -21.5 -50.5t-50.5 -21.5q-28 0 -49.5 21.5t-21.5 50.5q0 28 21.5 49.5t49.5 21.5q29 0 50.5 -21.5t21.5 -49.5z"/>
            <glyph glyph-name="dotlessi" unicode="&#x131;" horiz-adv-x="333"
                   d="M292 470l-80 -370q-5 -20 -6 -37q0 -5 1 -8.5t4 -6t6 -4.5t8 -3t8.5 -1.5t9.5 -1.5t9 -1h24l-8 -39q-23 0 -69.5 1t-69.5 1t-69 -0.5t-69 -1.5l8 39h27q25 2 34.5 14.5t17.5 48.5l53 255l7 37q2 14 -1 22.5t-14 12t-19.5 4t-27.5 0.5h-6l8 39h214z"/>
            <glyph glyph-name="Lslash" unicode="&#x141;" horiz-adv-x="611"
                   d="M-16 -2l4 40q57 3 71 16t25 76l28 126l-99 -66l11 67l104 69l52 234q7 36 8.5 52.5t-9 26.5t-24 11.5t-48.5 1.5l9 40q26 0 78.5 -1t78.5 -1q29 1 87 1.5t89 0.5l-9 -40q-68 -3 -83.5 -16t-26.5 -76l-27 -127l119 78l-14 -69l-121 -79l-69 -314h110q35 0 60.5 3.5
t44.5 13.5t30 19.5t21 31.5t15.5 38.5t14.5 50.5h72q-16 -50 -52 -208q-66 0 -197 1t-196 1q-26 0 -79 -0.5t-78 -1.5z"/>
            <glyph glyph-name="lslash" unicode="&#x142;" horiz-adv-x="333"
                   d="M346 745l-59 -282l101 41l-12 -54l-102 -43l-64 -306q-5 -20 -6 -37q0 -5 1 -8.5t4 -6t6 -4.5t8 -3t8.5 -1.5t9.5 -1.5t9 -1h24l-8 -40q-23 0 -69.5 1t-69.5 1t-69 -0.5t-69 -1.5l8 40h27q25 2 34.5 14.5t17.5 48.5l52 247l-96 -40l12 56l94 40l47 224l7 38q2 14 -1 22.5
t-14 12t-19.5 4t-27.5 0.5h-6l8 40h214z"/>
            <glyph glyph-name="OE" unicode="&#x152;" horiz-adv-x="1000"
                   d="M510 253l48 226q15 64 15 103q0 42 -28 63.5t-72 21.5q-56 0 -100.5 -35t-71 -87.5t-44.5 -119t-24.5 -123t-6.5 -104.5q0 -170 121 -170q27 0 48.5 6.5t37 21t25.5 28.5t18.5 39t13 40.5t11 46t9.5 43.5zM447 -2l9 29q-50 -25 -75 -31t-79 -6q-115 0 -171.5 74
t-56.5 194q0 87 23 166t67.5 142.5t117 101t162.5 37.5q48 0 81 -7.5t59 -33.5l6 26h436q-1 -4 -16 -81t-20 -95h-67q7 47 7 65q0 25 -13 42q-29 23 -106 23h-73l-54 -256h44q44 0 59.5 13.5t33.5 67.5h60q-40 -155 -51 -227h-56l3 36q3 13 1.5 29t-13.5 24q-20 13 -90 13
l-65 -297h81q43 0 65.5 3.5t45 18t36.5 43t28 78.5h70q-5 -26 -24.5 -101t-22.5 -91q-53 0 -160 1t-161 1q-20 0 -60.5 -1t-60.5 -1z"/>
            <glyph glyph-name="oe" unicode="&#x153;" horiz-adv-x="833"
                   d="M505 276h183q7 47 7 83q0 34 -16 57t-49 23q-15 0 -27.5 -3t-23 -10.5t-18.5 -13.5t-15 -19.5t-11 -20t-9.5 -24.5t-7.5 -23.5t-7 -25.5t-6 -23zM814 233h-317q-12 -63 -12 -111q0 -44 22 -68.5t65 -24.5q45 0 75.5 33t44.5 83h81h5.5h5t4.5 -0.5t3 -2t1.5 -3.5t-0.5 -6
l-3 -10q-24 -70 -85.5 -101.5t-143.5 -31.5q-111 0 -162 59q-56 -58 -177 -58q-94 0 -144.5 49t-50.5 141q0 135 74.5 217t206.5 82q99 0 161 -58q57 58 153 58q85 0 144 -41t59 -123q0 -44 -10 -83zM310 438q-38 0 -68 -36.5t-45.5 -91.5t-23 -100t-9.5 -82q0 -47 15 -72.5
t60 -25.5q37 0 66.5 39.5t44.5 96t22.5 105.5t7.5 80q0 87 -70 87z"/>
            <glyph glyph-name="Scaron" unicode="&#x160;" horiz-adv-x="667"
                   d="M609 491h-66q2 11 3.5 33t2.5 28q-3 110 -127 110q-62 0 -98.5 -34t-36.5 -95q0 -25 9.5 -44t31 -33.5t35.5 -21t43 -18.5q38 -16 58 -25t50.5 -27.5t45.5 -37t27 -47t12 -63.5q0 -63 -23 -108.5t-64.5 -70.5t-90.5 -36t-110 -11q-142 0 -249 50q25 69 40 180h73
q-11 -38 -11 -79q0 -55 37.5 -83t95.5 -28q69 0 112.5 34.5t43.5 101.5q0 25 -8 44t-26.5 33.5t-32 22t-42.5 20.5l-68 31q-127 58 -127 172q0 110 74.5 163t189.5 53q138 0 235 -50q-26 -93 -39 -164zM624 920l-158 -174h-99l-86 174h57l91 -91l131 91h64z"/>
            <glyph glyph-name="scaron" unicode="&#x161;" horiz-adv-x="444"
                   d="M392 461l36 -12q-17 -62 -21 -117h-52q3 108 -82 108q-41 0 -67 -19t-26 -59q0 -12 6.5 -23t13 -17t22.5 -13.5t21 -9.5t23 -8q30 -11 44 -17t35 -18t30 -24.5t16.5 -33.5t7.5 -48q0 -42 -19 -74t-50.5 -50t-68 -27t-76.5 -9q-114 0 -171 38q21 72 26 126h52
q2 -67 22.5 -96t76.5 -29q37 0 63.5 19t26.5 55q1 27 -20.5 45t-52.5 29t-63 25t-54 43.5t-22 73.5q0 77 61.5 119t141.5 42q53 0 120 -19zM483 705l-158 -174h-99l-86 174h57l91 -91l131 91h64z"/>
            <glyph glyph-name="Ydieresis" unicode="&#x178;" horiz-adv-x="667"
                   d="M414 354l121 158q67 88 67 111q0 11 -6 17.5t-20 8.5t-22 2.5t-28 0.5l9 40q20 0 58.5 -1t57.5 -1q20 0 58 1t58 1l-9 -40q-12 -1 -18.5 -2.5t-13 -2t-11.5 -4t-8.5 -5t-9.5 -8t-9.5 -10.5t-13 -15t-16.5 -19l-227 -285l-41 -171q-5 -24 -7 -38t1 -25.5t6.5 -16t18 -8
t26.5 -4t40 -0.5l-9 -40q-29 0 -85 0.5t-84 1.5q-28 -1 -83 -1.5t-84 -0.5l9 40q61 3 75.5 16t25.5 76l39 164l-86 244q-12 32 -16 42t-13 28t-14 22t-16.5 11t-23.5 8.5t-32 2.5l9 40q28 0 84 -1t84 -1t84 1t84 1l-9 -40q-13 0 -27.5 -0.5t-27 -1.5t-21 -10t-8.5 -25
q0 -22 27 -103zM663 834q0 -29 -21.5 -50.5t-49.5 -21.5q-29 0 -50.5 21.5t-21.5 50.5q0 28 21.5 49.5t50.5 21.5q28 0 49.5 -21.5t21.5 -49.5zM448 834q0 -29 -21.5 -50.5t-50.5 -21.5q-28 0 -49.5 21.5t-21.5 50.5q0 28 21.5 49.5t49.5 21.5q29 0 50.5 -21.5t21.5 -49.5z
"/>
            <glyph glyph-name="Zcaron" unicode="&#x17d;" horiz-adv-x="722"
                   d="M726 654l-501 -605h161h11q44 0 63.5 1t46 7t39.5 19t28.5 36.5t29.5 61.5l10 26h73q-40 -141 -50 -200h-613l4 32l504 612h-170q-36 0 -64.5 -8t-44 -20t-28 -29t-17.5 -31t-10.5 -31.5t-9.5 -24.5h-73q3 12 15.5 57t21.5 80t12 53h568zM642 920l-158 -174h-99l-86 174
h57l91 -91l131 91h64z"/>
            <glyph glyph-name="zcaron" unicode="&#x17e;" horiz-adv-x="500"
                   d="M508 470v-38l-337 -388h84q34 0 48.5 1t34 6t29.5 17t21.5 32.5t22.5 53.5h59q-20 -68 -32 -154h-448v29l341 395h-109q-36 0 -56 -10t-28 -24.5t-21 -50.5l-1.5 -4.5l-1.5 -4.5t-2 -5h-57q18 67 29 145h424zM511 705l-158 -174h-99l-86 174h57l91 -91l131 91h64z"/>
            <glyph glyph-name="florin" unicode="&#x192;"
                   d="M134 4l40 298h-110l8 51h107q2 9 7.5 42l7.5 45t9 41.5t12 42t15 36.5t20.5 35.5t26 27.5t33 23t40.5 12.5t50 5.5q134 0 134 -106q0 -31 -10.5 -41.5t-41.5 -10.5q-27 0 -39.5 8.5t-11.5 19.5t0 23q3 40 -2 53.5t-29 12.5q-19 -1 -32 -19t-20.5 -50t-12 -63t-9.5 -73
t-9 -65h117l-8 -51h-116l-37 -267q-36 -247 -213 -247q-65 0 -104 34.5t-22 99.5q3 11 13.5 13.5t34.5 2.5q11 0 18.5 -1t12.5 -4.5t8 -5.5t5 -9.5t2.5 -11t1 -14.5t0.5 -16q0 -24 6 -32.5t26 -13.5q29 -1 45 41t27 133z"/>
            <glyph glyph-name="circumflex" unicode="&#x2c6;" horiz-adv-x="333"
                   d="M325 708l84 -174h-57l-92 90l-128 -90h-65l159 174h99z"/>
            <glyph glyph-name="caron" unicode="&#x2c7;" horiz-adv-x="333"
                   d="M447 705l-158 -174h-99l-86 174h57l91 -91l131 91h64z"/>
            <glyph glyph-name="uni02C9" unicode="&#x2c9;" horiz-adv-x="333"
                   d="M76 572l19 76h336l-19 -76h-336z"/>
            <glyph glyph-name="breve" unicode="&#x2d8;" horiz-adv-x="333"
                   d="M389 697h45q-9 -74 -58 -119t-123 -45q-85 0 -120 51q-26 38 -21 113h48q3 -86 110 -86q40 0 75 24t44 62z"/>
            <glyph glyph-name="dotaccent" unicode="&#x2d9;" horiz-adv-x="333"
                   d="M328 619q0 -29 -21.5 -50.5t-50.5 -21.5q-28 0 -49.5 21.5t-21.5 50.5q0 28 21.5 49.5t49.5 21.5q29 0 50.5 -21.5t21.5 -49.5z"/>
            <glyph glyph-name="ring" unicode="&#x2da;" horiz-adv-x="333"
                   d="M498 640q0 -43 -31 -73.5t-73 -30.5q-43 0 -74 30.5t-31 73.5t31 73.5t74 30.5q42 0 73 -30.5t31 -73.5zM334 640q0 -24 18 -41.5t42 -17.5t41.5 17.5t17.5 41.5t-17.5 41.5t-41.5 17.5t-42 -17.5t-18 -41.5z"/>
            <glyph glyph-name="ogonek" unicode="&#x2db;" horiz-adv-x="333"
                   d="M214 -99l24 -13q-73 -77 -139 -77q-31 0 -49 18t-18 49q0 11 2.5 21t9.5 20.5l12 18t16 18t16 15.5t18 16t16 13h43q-2 -2 -14 -13t-17.5 -17t-14 -16t-12.5 -20t-4 -20q0 -20 13.5 -33.5t34.5 -13.5q31 0 63 34z"/>
            <glyph glyph-name="tilde" unicode="&#x2dc;" horiz-adv-x="333"
                   d="M403 690h45q-6 -52 -40 -88.5t-85 -36.5q-30 0 -82 21q-54 20 -71 20q-20 0 -29.5 -10t-17.5 -31h-45q6 48 40 86.5t80 38.5q32 0 84 -20q52 -21 67 -21q38 0 54 41z"/>
            <glyph glyph-name="hungarumlaut" unicode="&#x2dd;" horiz-adv-x="333"
                   d="M122 534h-55l121 134q45 50 74 50q20 0 36.5 -15t16.5 -35q5 -36 -64 -65zM335 534h-55l121 134q45 50 74 50q20 0 36.5 -15t16.5 -35q5 -36 -64 -65z"/>
            <glyph glyph-name="uni03A9" unicode="&#x3a9;" horiz-adv-x="727"
                   d="M677 155l-60 -155h-251l-4 22q6 8 30 40.5t36.5 50t34.5 51.5t34.5 59t26 58.5t19.5 63.5q27 129 -3.5 189.5t-101.5 60.5q-155 0 -208 -254q-7 -34 -7.5 -72.5t2.5 -65.5t13.5 -68t15.5 -57t18 -56l-13 -22h-252l9 155h31q7 -41 19.5 -53.5t44.5 -12.5h93
q-13 11 -22.5 19.5t-23 22t-23 26t-20 29t-16.5 34t-10 37.5t-3 43.5t6 48.5q27 127 127 204.5t230 77.5q131 0 196.5 -74.5t38.5 -201.5q-9 -43 -32 -82.5t-60 -74t-65.5 -57t-72.5 -52.5h103q30 0 47 12t41 54h32z"/>
            <glyph glyph-name="uni03BC" unicode="&#x3bc;" horiz-adv-x="611"
                   d="M345 -2l14 68q-87 -87 -205 -74l-7 -108q-9 -95 -71 -95q-35 0 -53.5 19t-11.5 52l108 510q4 16 3.5 26.5t-2.5 16t-9.5 9t-13.5 4.5t-19.5 2.5l-22.5 2.5l8 39h217l-68 -306q-13 -38 -4.5 -68.5t53.5 -30.5q43 0 72.5 23t38.5 64l48 214q4 21 4.5 32t-4.5 17t-9.5 7.5
t-21 3.5t-28.5 5l6 39h208l-73 -346q-14 -57 -8 -70.5t58 -18.5l-8 -37q-16 0 -49 1t-50 1t-50 -1t-50 -1z"/>
            <glyph glyph-name="pi" unicode="&#x3c0;" horiz-adv-x="572"
                   d="M564 442l26 -9q-10 -29 -29 -62.5t-32 -46.5q-25 -6 -64 -6q-18 -57 -43 -180q-16 -78 23 -78q18 0 47 19l7 -26q-25 -28 -61 -46t-68 -18q-99 0 -74 122q17 79 54 210q-30 0 -70.5 0.5t-55.5 0.5l-3 -10q-20 -94 -49 -167t-47 -100.5t-32 -39.5q-40 -14 -69 -16l-4 20
q59 61 100 149t58 166q-41 1 -67.5 -7t-64.5 -29l-10 28l12.5 12.5l14 14t14 13t16 13.5t16.5 11.5t19.5 11t21 8.5t24.5 7.5t26.5 4t30.5 1.5q225 -3 267 -3q23 0 37 6.5t29 25.5z"/>
            <glyph glyph-name="endash" unicode="&#x2013;" horiz-adv-x="500"
                   d="M0 182v109h500v-109h-500z"/>
            <glyph glyph-name="emdash" unicode="&#x2014;" horiz-adv-x="1000"
                   d="M1000 182h-1000v109h1000v-109z"/>
            <glyph glyph-name="quoteleft" unicode="&#x2018;" horiz-adv-x="278"
                   d="M287 706l10 -35q-43 -14 -75 -43t-43 -72q13 5 31 5q24 0 35.5 -18t11.5 -44q0 -33 -20.5 -62.5t-52.5 -29.5q-35 0 -54 20t-19 55q0 78 50.5 145.5t125.5 78.5z"/>
            <glyph glyph-name="quoteright" unicode="&#x2019;" horiz-adv-x="278"
                   d="M106 410l-10 34q38 15 62.5 33.5t32 30.5t14.5 30t9 22q-15 -6 -32 -6q-22 0 -34 18.5t-12 41.5q0 39 20.5 66.5t58.5 27.5q31 0 49 -21t18 -53q0 -78 -50.5 -145.5t-125.5 -78.5z"/>
            <glyph glyph-name="quotesinglbase" unicode="&#x201a;" horiz-adv-x="278"
                   d="M12 -149l-9 34q20 9 33 16t31 20.5t31 33t22 45.5l-15 -3q-12 -2 -16 -2q-47 6 -47 59q0 39 21 66.5t59 27.5q32 0 49 -20.5t17 -53.5q0 -78 -50.5 -145t-125.5 -78z"/>
            <glyph glyph-name="quotedblleft" unicode="&#x201c;" horiz-adv-x="500"
                   d="M505 706l10 -35q-43 -14 -75 -43t-43 -72q13 5 31 5q24 0 35.5 -18t11.5 -44q0 -33 -20.5 -62.5t-52.5 -29.5q-35 0 -54 20t-19 55q0 78 50.5 145.5t125.5 78.5zM278 706l10 -35q-43 -14 -75 -43t-43 -72q12 5 31 5q24 0 35.5 -18t11.5 -44q0 -33 -20.5 -62.5
t-52.5 -29.5q-35 0 -54 20t-19 55q0 78 50.5 145.5t125.5 78.5z"/>
            <glyph glyph-name="quotedblright" unicode="&#x201d;" horiz-adv-x="500"
                   d="M103 410l-10 34q38 15 62.5 33.5t32 30.5t14.5 30t9 22q-15 -6 -32 -6q-22 0 -34 18.5t-12 41.5q0 39 20.5 66.5t58.5 27.5q31 0 49 -21t18 -53q0 -78 -50.5 -145.5t-125.5 -78.5zM330 410l-10 34q38 15 62.5 33.5t32 30.5t14.5 30t9 22q-15 -6 -32 -6q-22 0 -34 18.5
t-12 41.5q0 39 20.5 66.5t58.5 27.5q31 0 49 -21t18 -53q0 -78 -50.5 -145.5t-125.5 -78.5z"/>
            <glyph glyph-name="quotedblbase" unicode="&#x201e;" horiz-adv-x="500"
                   d="M2 -148l-9 34q97 37 117 115l-15 -3q-12 -2 -16 -2q-47 6 -47 59q0 39 21 66.5t59 27.5q32 0 49 -20.5t17 -53.5q0 -78 -50.5 -145t-125.5 -78zM229 -148l-9 34q97 37 117 115l-15 -3q-12 -2 -16 -2q-47 6 -47 59q0 39 21 66.5t59 27.5q32 0 49 -20.5t17 -53.5
q0 -78 -50.5 -145t-125.5 -78z"/>
            <glyph glyph-name="dagger" unicode="&#x2020;"
                   d="M359 652l72 38l12 -9q-36 -97 -58 -210q68 0 92.5 1.5t86.5 11.5l7 -17l-41 -41l24 -44l-10 -11q-112 16 -177 16q0 -1 -9.5 -42t-15.5 -69.5t-15.5 -77.5t-15 -83t-9 -67.5t-1.5 -48.5l-16 -9l-56 32l-70 -32l-14 13q10 30 16.5 51t13.5 44t11 35t9.5 35t8 32t8.5 37
t8.5 39.5t11 50.5t13.5 60q-4 0 -36 -0.5t-53.5 -1t-48 -3.5t-39.5 -9l-8 13l37 47l-24 41l8 13q16 -3 34.5 -6.5t27 -5.5t13.5 -2q26 -2 107 -2q4 22 10 55.5t9.5 51.5t6 46t2.5 57l12 12z"/>
            <glyph glyph-name="daggerdbl" unicode="&#x2021;"
                   d="M387 451l-48 -210q101 -2 183 12l7 -11l-42 -43l26 -44l-8 -9q-19 2 -48.5 6.5t-58 6.5t-73.5 1q-2 -12 -7 -40t-6.5 -40.5t-4 -40t0.5 -40.5l-16 -9l-57 31l-71 -31l-11 13q10 23 18.5 49t17.5 59t15 50q-120 0 -177 -12l-7 12l36 43l-24 43l7 9q65 -14 184 -14l47 210
q-111 0 -181 -14l-7 13l37 45l-24 41l8 10q72 -13 183 -13q20 120 17 162l14 10l55 -40l70 39l12 -9q-36 -81 -49 -163q128 2 179 12l7 -11l-39 -45l26 -42l-11 -10q-20 2 -45.5 5.5t-37 5t-36.5 2.5t-61 1z"/>
            <glyph glyph-name="bullet" unicode="&#x2022;" horiz-adv-x="606"
                   d="M471 340q0 -70 -49.5 -119.5t-119.5 -49.5t-119 49.5t-49 119.5t49 119t119 49t119.5 -49t49.5 -119z"/>
            <glyph glyph-name="ellipsis" unicode="&#x2026;" horiz-adv-x="1000"
                   d="M500 -10q-26 0 -44.5 16.5t-18.5 41.5q0 43 22.5 72.5t63.5 29.5q26 0 43.5 -19t17.5 -46q0 -39 -23 -67t-61 -28zM833 -10q-26 0 -44.5 16.5t-18.5 41.5q0 43 22.5 72.5t63.5 29.5q26 0 43.5 -19t17.5 -46q0 -39 -23 -67t-61 -28zM167 -10q-26 0 -44.5 16.5t-18.5 41.5
q0 43 22.5 72.5t63.5 29.5q26 0 43.5 -19t17.5 -46q0 -39 -23 -67t-61 -28z"/>
            <glyph glyph-name="perthousand" unicode="&#x2030;" horiz-adv-x="1000"
                   d="M804 -8q-57 0 -89.5 36t-32.5 93q0 76 47.5 132.5t122.5 56.5q54 0 89.5 -34.5t35.5 -88.5q0 -82 -46.5 -138.5t-126.5 -56.5zM851 279q-24 0 -42.5 -24.5t-27.5 -60.5t-13.5 -67t-4.5 -54q0 -55 42 -55q57 0 79 120q12 52 12 84q0 57 -45 57zM469 -8q-57 0 -90 36
t-33 93q0 76 47.5 132.5t122.5 56.5q55 0 90 -34t35 -89q0 -81 -46 -138t-126 -57zM515 279q-24 0 -42.5 -24.5t-27.5 -60.5t-13.5 -67t-4.5 -54q0 -55 42 -55q57 0 79 120q12 52 12 84q0 57 -45 57zM188 372q-57 0 -90 36t-33 94q0 76 47.5 132t122.5 56q55 0 90 -33.5
t35 -88.5q0 -82 -46 -139t-126 -57zM234 660q-32 0 -53.5 -43t-28 -86t-6.5 -77q0 -52 39 -55q26 0 45.5 24t29.5 59t14.5 66t4.5 54q0 58 -45 58zM153 -26h-57l456 724h56z"/>
            <glyph glyph-name="guilsinglleft" unicode="&#x2039;" horiz-adv-x="278"
                   d="M159 50l-138 184l7 44l200 170h41v-6l-156 -194l83 -195v-3h-37z"/>
            <glyph glyph-name="guilsinglright" unicode="&#x203a;" horiz-adv-x="278"
                   d="M118 446l138 -184l-7 -44l-200 -170h-41v5l155 195l-82 194v4h37z"/>
            <glyph glyph-name="fraction" unicode="&#x2044;" horiz-adv-x="167"
                   d="M-91 0h-54l439 690h55z"/>
            <glyph glyph-name="Euro" unicode="&#x20ac;"
                   d="M592 618q-16 -63 -31 -146h-77q7 54 7 70q0 43 -15 64.5t-55 21.5q-29 0 -51 -14.5t-38.5 -47t-27.5 -66t-25 -90.5h207l-21 -46h-196l-3 -18t-3.5 -21.5t-2.5 -17.5h177l-21 -46h-162q-9 -68 -9 -127q0 -104 72 -104q43 0 73 28t41 72q0 1 1.5 6t2.5 7t3 5t5 4.5t7 1.5
h76q9 0 9 -11q0 -10 -8 -26q-61 -127 -213 -127q-117 0 -164.5 62.5t-47.5 182.5v26h-84l22 46h67q2 20 10 57h-76l22 46h65q35 123 91 181q76 77 196 77q81 0 177 -50z"/>
            <glyph glyph-name="afii61289" unicode="&#x2113;" horiz-adv-x="433"
                   d="M371 134l18 -22q-94 -121 -208 -121q-74 0 -101 37q-15 23 -17.5 48t9.5 92l11 53l-64 -36l-7 30l80 48l26 122q21 99 42 147t59 85q58 57 122 57q50 0 68 -36.5t7 -91.5q-16 -74 -65 -133.5t-139 -126.5l-14 -70q-18 -85 -6.5 -120t55.5 -35q57 0 124 73zM245 437
l-22 -99q99 88 124 206q10 38 5 67t-25 29q-24 0 -40.5 -42t-41.5 -161z"/>
            <glyph glyph-name="trademark" unicode="&#x2122;" horiz-adv-x="1000"
                   d="M467 683v-106h-35q0 40 -16.5 54.5t-57.5 14.5h-43v-304q0 -8 1 -14t4 -9.5t5.5 -5.5t9.5 -2.5t11 -1t14.5 0t16.5 0.5v-31h-211v31h16.5h15t11 1t10 3t6 5.5t4.5 9.5t1 14v303h-39q-41 0 -57.5 -14.5t-16.5 -54.5h-35v106h385zM655 683l111 -257l107 257h149v-28
q-38 0 -44 -5q-6 -6 -6 -31v-259q0 -33 7.5 -40.5t42.5 -9.5v-31h-186v31q35 1 43 8.5t8 40.5v262h-2l-138 -342h-12l-146 342h-2v-280q0 -20 12.5 -25.5t36.5 -5.5v-31h-137v31q6 0 17 0.5t14 1t8.5 3t7 8t3 15t1.5 25.5v256q0 27 -5.5 31.5t-36.5 4.5v28h147z"/>
            <glyph glyph-name="Omega" unicode="&#x2126;" horiz-adv-x="727"
                   d="M677 155l-60 -155h-251l-4 22q6 8 30 40.5t36.5 50t34.5 51.5t34.5 59t26 58.5t19.5 63.5q27 129 -3.5 189.5t-101.5 60.5q-155 0 -208 -254q-7 -34 -7.5 -72.5t2.5 -65.5t13.5 -68t15.5 -57t18 -56l-13 -22h-252l9 155h31q7 -41 19.5 -53.5t44.5 -12.5h93
q-13 11 -22.5 19.5t-23 22t-23 26t-20 29t-16.5 34t-10 37.5t-3 43.5t6 48.5q27 127 127 204.5t230 77.5q131 0 196.5 -74.5t38.5 -201.5q-9 -43 -32 -82.5t-60 -74t-65.5 -57t-72.5 -52.5h103q30 0 47 12t41 54h32z"/>
            <glyph glyph-name="estimated" unicode="&#x212e;" horiz-adv-x="861"
                   d="M831 303h-580q-4 0 -4 -4v-175q0 -12 7 -20q92 -95 219 -95q140 0 231 106h51q-49 -57 -123.5 -90.5t-159.5 -33.5q-148 0 -252.5 94t-104.5 227t104.5 227.5t252.5 94.5q149 0 254 -94t105 -228v-9zM699 326v176q0 11 -8 21q-94 91 -218 91q-126 0 -218 -94
q-8 -8 -8 -22v-172q0 -6 4 -6h444q4 0 4 6z"/>
            <glyph glyph-name="partialdiff" unicode="&#x2202;" horiz-adv-x="538"
                   d="M294 397h1q35 0 64.5 -15t43.5 -42q16 42 32 99q20 85 5 138q-9 28 -32.5 46t-58.5 18q-64 0 -157 -64q-14 -1 -24.5 30t1.5 51q74 37 152 37q140 0 189 -130q33 -93 7 -212q-29 -132 -97 -223q-102 -139 -245 -139q-85 0 -125 50.5t-22 135.5q20 91 92 154q77 66 174 66
zM315 351q-56 0 -101 -51q-55 -66 -79 -177q-9 -45 4 -71t47 -26q52 0 114 92q45 68 85 177q-6 21 -24.5 38.5t-45.5 17.5z"/>
            <glyph glyph-name="Delta" unicode="&#x2206;" horiz-adv-x="638"
                   d="M554 0h-569l7 33l376 584l58 13l135 -597zM416 57l-90 421l-264 -421h354z"/>
            <glyph glyph-name="product" unicode="&#x220f;" horiz-adv-x="782"
                   d="M756 631v-31q-62 -5 -75.5 -18t-13.5 -65v-472q0 -56 13.5 -70t74.5 -19v-31h-286v31q53 4 64 17t11 72v513q0 22 -6.5 27.5t-28.5 5.5h-154q-22 0 -27 -5t-5 -25v-516q0 -58 9.5 -71.5t58.5 -17.5v-31h-280v31q60 5 74 19.5t14 69.5v472q0 52 -14 65.5t-77 17.5v31h648z
"/>
            <glyph glyph-name="summation" unicode="&#x2211;" horiz-adv-x="638"
                   d="M616 121l-46 -203h-461v32l210 289l-204 360v32h454q2 -34 12 -166l-32 -8q-16 66 -37 101q-12 21 -30.5 28t-70.5 7h-148l159 -277l-212 -298h233q66 0 87 16t54 96z"/>
            <glyph glyph-name="minus" unicode="&#x2212;" horiz-adv-x="606"
                   d="M51 205v87h504v-87h-504z"/>
            <glyph glyph-name="uni2215" unicode="&#x2215;" horiz-adv-x="167"
                   d="M-91 0h-54l439 690h55z"/>
            <glyph glyph-name="uni2219" unicode="&#x2219;" horiz-adv-x="278"
                   d="M149 234q-29 0 -49.5 21t-20.5 49q0 29 20.5 50t49.5 21t50 -21t21 -50t-21 -49.5t-50 -20.5z"/>
            <glyph glyph-name="radical" unicode="&#x221a;" horiz-adv-x="624"
                   d="M616 789l-167 -932l-29 -12l-206 490l-83 -39l-13 38l176 80l143 -359h3l129 743z"/>
            <glyph glyph-name="infinity" unicode="&#x221e;" horiz-adv-x="751"
                   d="M708 257v-1q0 -73 -44.5 -117t-104.5 -44q-86 0 -164 103q-41 -50 -79.5 -76.5t-88.5 -26.5q-60 0 -103.5 44t-43.5 112q0 70 44 114.5t111 44.5q86 0 164 -99q2 2 11.5 12.5t12.5 13.5t12.5 13t14 14t14.5 12t17 11.5l18 9t20.5 8t21 4t23.5 1.5q61 0 102.5 -42.5
t41.5 -110.5zM235 163h1q23 0 47.5 15t37.5 28.5t36 41.5q-25 35 -37 49.5t-36.5 30.5t-51.5 16q-37 0 -59.5 -26t-22.5 -67q0 -36 24.5 -62t60.5 -26zM557 344h-1q-10 0 -20 -3t-17.5 -6t-17.5 -11t-15.5 -12t-15 -15t-13 -14.5t-13 -15.5t-10.5 -13q41 -52 68 -71.5
t59 -19.5q34 0 55.5 28t21.5 60q0 41 -22.5 67t-58.5 26z"/>
            <glyph glyph-name="integral" unicode="&#x222b;" horiz-adv-x="468"
                   d="M240 -9l-20 359q-5 97 3.5 171.5t25 117.5t41.5 70.5t48 36.5t49 9t48 -14.5t22 -38.5q0 -26 -16 -40.5t-38 -14.5q-15 0 -24.5 14.5t-15.5 29.5t-14 15q-33 0 -26 -138l17 -336q6 -114 -5.5 -199t-37 -133t-57.5 -70.5t-71 -22.5q-29 0 -49.5 16.5t-20.5 38.5
q-1 24 19.5 41t44.5 17q17 0 29 -32t21 -32q34 0 27 135z"/>
            <glyph glyph-name="approxequal" unicode="&#x2248;"
                   d="M475 411l47 -45q-56 -93 -131 -93q-45 0 -105 36q-50 29 -80 29q-28 0 -47.5 -16.5t-42.5 -47.5l-47 44q22 40 60.5 66.5t81.5 26.5t98 -33q23 -14 31.5 -18.5t22 -9t26.5 -4.5q44 0 86 65zM475 238l47 -45q-55 -93 -132 -93q-44 0 -104 35q-49 30 -79 30
q-20 0 -38 -10.5t-27.5 -22t-25.5 -32.5l-47 45q22 40 61 66t81 26q44 0 97 -31q5 -3 19 -11.5t20.5 -12t18 -7t22.5 -3.5q26 0 44.5 15.5t42.5 50.5z"/>
            <glyph glyph-name="notequal" unicode="&#x2260;" horiz-adv-x="572"
                   d="M438 462l-35 -78h125v-72h-154l-53 -120h207v-72h-237l-47 -105l-58 25l36 80h-124v72h154l52 120h-206v72h236l46 103z"/>
            <glyph glyph-name="lessequal" unicode="&#x2264;" horiz-adv-x="591"
                   d="M545 96l-424 201v78l424 200v-82l-349 -156v-1l349 -157v-83zM548 -10h-430v73h430v-73z"/>
            <glyph glyph-name="greaterequal" unicode="&#x2265;" horiz-adv-x="591"
                   d="M122 575l424 -200v-78l-424 -201v83l349 156v2l-349 156v82zM545 -10h-427v73h427v-73z"/>
            <glyph glyph-name="lozenge" unicode="&#x25ca;" horiz-adv-x="639"
                   d="M597 300l-191 -367h-88l-190 367l192 370h86zM513 300l-148 296h-4l-149 -295l150 -298h2z"/>
            </font>
</defs>
</svg>
